<svg width="180" height="165" viewBox="0 0 180 165" fill="none" xmlns="http://www.w3.org/2000/svg">
<path d="M175 160H31.2768V5H133.456V39.7763H175V160Z" fill="#FCFCFC" stroke="#818181" stroke-width="10" stroke-miterlimit="10"/>
<path d="M89.2725 34H8.31732C3.72379 34 0 37.012 0 40.7274V106.208C0 109.923 3.72379 112.935 8.31732 112.935H89.2725C93.8661 112.935 97.5898 109.923 97.5898 106.208V40.7274C97.5898 37.012 93.8661 34 89.2725 34Z" fill="#107C42"/>
<path d="M78.2448 105.042H64.2356L22.7682 48.6939H37.0576L78.2448 105.042Z" fill="white"/>
<path d="M22.7682 105.042H36.7775L78.2448 48.6939H63.9554L22.7682 105.042Z" fill="white"/>
<path d="M126.84 56.2674H103.329V64.6991H126.84V56.2674Z" fill="#21A365"/>
<path d="M155.895 56.2674H132.385V64.6991H155.895V56.2674Z" fill="#33C481"/>
<path d="M126.84 69.0047H103.329V77.4364H126.84V69.0047Z" fill="#107C42"/>
<path d="M155.895 69.0047H132.385V77.4364H155.895V69.0047Z" fill="#21A365"/>
<path d="M126.84 81.7419H103.329V90.1737H126.84V81.7419Z" fill="#195D38"/>
<path d="M155.895 81.7419H132.385V90.1737H155.895V81.7419Z" fill="#104B2B"/>
</svg>
