<svg width="395" height="43" viewBox="0 0 395 43" fill="none" xmlns="http://www.w3.org/2000/svg">
<rect x="0.5" width="394" height="43" rx="8" fill="#029664"/>
<path d="M164.288 27.5V15.8636H166.396V25.733H171.521V27.5H164.288ZM177.067 27.6705C176.214 27.6705 175.476 27.483 174.851 27.108C174.226 26.733 173.741 26.2083 173.396 25.5341C173.055 24.8598 172.885 24.072 172.885 23.1705C172.885 22.2689 173.055 21.4792 173.396 20.8011C173.741 20.1231 174.226 19.5966 174.851 19.2216C175.476 18.8466 176.214 18.6591 177.067 18.6591C177.919 18.6591 178.658 18.8466 179.283 19.2216C179.908 19.5966 180.391 20.1231 180.732 20.8011C181.076 21.4792 181.249 22.2689 181.249 23.1705C181.249 24.072 181.076 24.8598 180.732 25.5341C180.391 26.2083 179.908 26.733 179.283 27.108C178.658 27.483 177.919 27.6705 177.067 27.6705ZM177.078 26.0227C177.54 26.0227 177.927 25.8958 178.237 25.642C178.548 25.3845 178.779 25.0398 178.93 24.608C179.086 24.1761 179.163 23.6951 179.163 23.1648C179.163 22.6307 179.086 22.1477 178.93 21.7159C178.779 21.2803 178.548 20.9337 178.237 20.6761C177.927 20.4186 177.54 20.2898 177.078 20.2898C176.605 20.2898 176.211 20.4186 175.896 20.6761C175.586 20.9337 175.353 21.2803 175.197 21.7159C175.046 22.1477 174.97 22.6307 174.97 23.1648C174.97 23.6951 175.046 24.1761 175.197 24.608C175.353 25.0398 175.586 25.3845 175.896 25.642C176.211 25.8958 176.605 26.0227 177.078 26.0227ZM186.79 30.9545C186.051 30.9545 185.417 30.8542 184.886 30.6534C184.356 30.4564 183.93 30.1913 183.608 29.858C183.286 29.5246 183.062 29.1553 182.938 28.75L184.79 28.3011C184.873 28.4716 184.994 28.6402 185.153 28.8068C185.313 28.9773 185.527 29.1174 185.795 29.2273C186.068 29.3409 186.411 29.3977 186.824 29.3977C187.407 29.3977 187.89 29.2557 188.273 28.9716C188.655 28.6913 188.847 28.2292 188.847 27.5852V25.9318H188.744C188.638 26.1439 188.483 26.3617 188.278 26.5852C188.078 26.8087 187.811 26.9962 187.477 27.1477C187.148 27.2992 186.733 27.375 186.233 27.375C185.562 27.375 184.955 27.2178 184.409 26.9034C183.867 26.5852 183.436 26.1117 183.114 25.483C182.795 24.8504 182.636 24.0587 182.636 23.108C182.636 22.1496 182.795 21.3409 183.114 20.6818C183.436 20.0189 183.869 19.517 184.415 19.1761C184.96 18.8314 185.568 18.6591 186.239 18.6591C186.75 18.6591 187.17 18.7462 187.5 18.9205C187.833 19.0909 188.098 19.2973 188.295 19.5398C188.492 19.7784 188.642 20.0038 188.744 20.2159H188.858V18.7727H190.886V27.642C190.886 28.3883 190.708 29.0057 190.352 29.4943C189.996 29.983 189.509 30.3485 188.892 30.5909C188.275 30.8333 187.574 30.9545 186.79 30.9545ZM186.807 25.7614C187.242 25.7614 187.614 25.6553 187.92 25.4432C188.227 25.2311 188.46 24.9261 188.619 24.5284C188.778 24.1307 188.858 23.6534 188.858 23.0966C188.858 22.5473 188.778 22.0663 188.619 21.6534C188.464 21.2405 188.233 20.9205 187.926 20.6932C187.623 20.4621 187.25 20.3466 186.807 20.3466C186.348 20.3466 185.966 20.4659 185.659 20.7045C185.352 20.9432 185.121 21.2708 184.966 21.6875C184.811 22.1004 184.733 22.5701 184.733 23.0966C184.733 23.6307 184.811 24.0985 184.966 24.5C185.125 24.8977 185.358 25.2083 185.665 25.4318C185.975 25.6515 186.356 25.7614 186.807 25.7614ZM192.994 27.5V18.7727H195.051V27.5H192.994ZM194.028 17.5341C193.703 17.5341 193.422 17.4261 193.188 17.2102C192.953 16.9905 192.835 16.7273 192.835 16.4205C192.835 16.1098 192.953 15.8466 193.188 15.6307C193.422 15.411 193.703 15.3011 194.028 15.3011C194.358 15.3011 194.638 15.411 194.869 15.6307C195.104 15.8466 195.222 16.1098 195.222 16.4205C195.222 16.7273 195.104 16.9905 194.869 17.2102C194.638 17.4261 194.358 17.5341 194.028 17.5341ZM199.223 22.3864V27.5H197.166V18.7727H199.132V20.2557H199.234C199.435 19.767 199.755 19.3788 200.195 19.0909C200.638 18.803 201.185 18.6591 201.837 18.6591C202.439 18.6591 202.964 18.7879 203.411 19.0455C203.861 19.303 204.21 19.6761 204.456 20.1648C204.706 20.6534 204.829 21.2462 204.825 21.9432V27.5H202.768V22.2614C202.768 21.678 202.617 21.2216 202.314 20.892C202.015 20.5625 201.6 20.3977 201.07 20.3977C200.71 20.3977 200.39 20.4773 200.109 20.6364C199.833 20.7917 199.615 21.017 199.456 21.3125C199.301 21.608 199.223 21.9659 199.223 22.3864Z" fill="white"/>
<rect x="352.5" y="9.5" width="26" height="24" rx="12" fill="url(#paint0_linear_10_635)"/>
<path d="M361.879 21.4518L369.938 21.5591" stroke="white" stroke-width="3" stroke-linecap="round" stroke-linejoin="round"/>
<path d="M365.955 18.0057L369.938 21.559L365.862 25.0051" stroke="white" stroke-width="3" stroke-linecap="round" stroke-linejoin="round"/>
<defs>
<linearGradient id="paint0_linear_10_635" x1="365.5" y1="9.5" x2="365.5" y2="33.5" gradientUnits="userSpaceOnUse">
<stop stop-color="#37C77F"/>
<stop offset="1" stop-color="#7D9393"/>
</linearGradient>
</defs>
</svg>
