<svg width="199" height="48" viewBox="0 0 199 48" fill="none" xmlns="http://www.w3.org/2000/svg">
<path d="M60.4759 30V18.3636H62.5838V28.233H67.7088V30H60.4759ZM73.2543 30.1705C72.402 30.1705 71.6634 29.983 71.0384 29.608C70.4134 29.233 69.9285 28.7083 69.5838 28.0341C69.2429 27.3598 69.0724 26.572 69.0724 25.6705C69.0724 24.7689 69.2429 23.9792 69.5838 23.3011C69.9285 22.6231 70.4134 22.0966 71.0384 21.7216C71.6634 21.3466 72.402 21.1591 73.2543 21.1591C74.1065 21.1591 74.8452 21.3466 75.4702 21.7216C76.0952 22.0966 76.5781 22.6231 76.919 23.3011C77.2637 23.9792 77.4361 24.7689 77.4361 25.6705C77.4361 26.572 77.2637 27.3598 76.919 28.0341C76.5781 28.7083 76.0952 29.233 75.4702 29.608C74.8452 29.983 74.1065 30.1705 73.2543 30.1705ZM73.2656 28.5227C73.7277 28.5227 74.1141 28.3958 74.4247 28.142C74.7353 27.8845 74.9664 27.5398 75.1179 27.108C75.2732 26.6761 75.3509 26.1951 75.3509 25.6648C75.3509 25.1307 75.2732 24.6477 75.1179 24.2159C74.9664 23.7803 74.7353 23.4337 74.4247 23.1761C74.1141 22.9186 73.7277 22.7898 73.2656 22.7898C72.7921 22.7898 72.3982 22.9186 72.0838 23.1761C71.7732 23.4337 71.5402 23.7803 71.3849 24.2159C71.2334 24.6477 71.1577 25.1307 71.1577 25.6648C71.1577 26.1951 71.2334 26.6761 71.3849 27.108C71.5402 27.5398 71.7732 27.8845 72.0838 28.142C72.3982 28.3958 72.7921 28.5227 73.2656 28.5227ZM82.9773 33.4545C82.2386 33.4545 81.6042 33.3542 81.0739 33.1534C80.5436 32.9564 80.1174 32.6913 79.7955 32.358C79.4735 32.0246 79.25 31.6553 79.125 31.25L80.9773 30.8011C81.0606 30.9716 81.1818 31.1402 81.3409 31.3068C81.5 31.4773 81.714 31.6174 81.983 31.7273C82.2557 31.8409 82.5985 31.8977 83.0114 31.8977C83.5947 31.8977 84.0777 31.7557 84.4602 31.4716C84.8428 31.1913 85.0341 30.7292 85.0341 30.0852V28.4318H84.9318C84.8258 28.6439 84.6705 28.8617 84.4659 29.0852C84.2652 29.3087 83.9981 29.4962 83.6648 29.6477C83.3352 29.7992 82.9205 29.875 82.4205 29.875C81.75 29.875 81.142 29.7178 80.5966 29.4034C80.0549 29.0852 79.6231 28.6117 79.3011 27.983C78.983 27.3504 78.8239 26.5587 78.8239 25.608C78.8239 24.6496 78.983 23.8409 79.3011 23.1818C79.6231 22.5189 80.0568 22.017 80.6023 21.6761C81.1477 21.3314 81.7557 21.1591 82.4261 21.1591C82.9375 21.1591 83.358 21.2462 83.6875 21.4205C84.0208 21.5909 84.286 21.7973 84.483 22.0398C84.6799 22.2784 84.8295 22.5038 84.9318 22.7159H85.0455V21.2727H87.0739V30.142C87.0739 30.8883 86.8958 31.5057 86.5398 31.9943C86.1837 32.483 85.697 32.8485 85.0795 33.0909C84.4621 33.3333 83.7614 33.4545 82.9773 33.4545ZM82.9943 28.2614C83.4299 28.2614 83.8011 28.1553 84.108 27.9432C84.4148 27.7311 84.6477 27.4261 84.8068 27.0284C84.9659 26.6307 85.0455 26.1534 85.0455 25.5966C85.0455 25.0473 84.9659 24.5663 84.8068 24.1534C84.6515 23.7405 84.4205 23.4205 84.1136 23.1932C83.8106 22.9621 83.4375 22.8466 82.9943 22.8466C82.536 22.8466 82.1534 22.9659 81.8466 23.2045C81.5398 23.4432 81.3087 23.7708 81.1534 24.1875C80.9981 24.6004 80.9205 25.0701 80.9205 25.5966C80.9205 26.1307 80.9981 26.5985 81.1534 27C81.3125 27.3977 81.5455 27.7083 81.8523 27.9318C82.1629 28.1515 82.5436 28.2614 82.9943 28.2614ZM92.9886 30.1705C92.1364 30.1705 91.3977 29.983 90.7727 29.608C90.1477 29.233 89.6629 28.7083 89.3182 28.0341C88.9773 27.3598 88.8068 26.572 88.8068 25.6705C88.8068 24.7689 88.9773 23.9792 89.3182 23.3011C89.6629 22.6231 90.1477 22.0966 90.7727 21.7216C91.3977 21.3466 92.1364 21.1591 92.9886 21.1591C93.8409 21.1591 94.5795 21.3466 95.2045 21.7216C95.8295 22.0966 96.3125 22.6231 96.6534 23.3011C96.9981 23.9792 97.1705 24.7689 97.1705 25.6705C97.1705 26.572 96.9981 27.3598 96.6534 28.0341C96.3125 28.7083 95.8295 29.233 95.2045 29.608C94.5795 29.983 93.8409 30.1705 92.9886 30.1705ZM93 28.5227C93.4621 28.5227 93.8485 28.3958 94.1591 28.142C94.4697 27.8845 94.7008 27.5398 94.8523 27.108C95.0076 26.6761 95.0852 26.1951 95.0852 25.6648C95.0852 25.1307 95.0076 24.6477 94.8523 24.2159C94.7008 23.7803 94.4697 23.4337 94.1591 23.1761C93.8485 22.9186 93.4621 22.7898 93 22.7898C92.5265 22.7898 92.1326 22.9186 91.8182 23.1761C91.5076 23.4337 91.2746 23.7803 91.1193 24.2159C90.9678 24.6477 90.892 25.1307 90.892 25.6648C90.892 26.1951 90.9678 26.6761 91.1193 27.108C91.2746 27.5398 91.5076 27.8845 91.8182 28.142C92.1326 28.3958 92.5265 28.5227 93 28.5227ZM104.479 26.3295V21.2727H106.536V30H104.541V28.4489H104.45C104.253 28.9375 103.929 29.3371 103.479 29.6477C103.032 29.9583 102.481 30.1136 101.825 30.1136C101.253 30.1136 100.748 29.9867 100.308 29.733C99.8726 29.4754 99.5317 29.1023 99.2855 28.6136C99.0393 28.1212 98.9162 27.5265 98.9162 26.8295V21.2727H100.973V26.5114C100.973 27.0644 101.125 27.5038 101.428 27.8295C101.731 28.1553 102.128 28.3182 102.621 28.3182C102.924 28.3182 103.217 28.2443 103.501 28.0966C103.786 27.9489 104.018 27.7292 104.2 27.4375C104.386 27.142 104.479 26.7727 104.479 26.3295ZM113.009 21.2727V22.8636H107.991V21.2727H113.009ZM109.23 19.1818H111.287V27.375C111.287 27.6515 111.329 27.8636 111.412 28.0114C111.499 28.1553 111.613 28.2538 111.753 28.3068C111.893 28.3598 112.048 28.3864 112.219 28.3864C112.348 28.3864 112.465 28.3769 112.571 28.358C112.681 28.339 112.764 28.322 112.821 28.3068L113.168 29.9148C113.058 29.9527 112.901 29.9943 112.696 30.0398C112.495 30.0852 112.249 30.1117 111.957 30.1193C111.442 30.1345 110.978 30.0568 110.565 29.8864C110.152 29.7121 109.825 29.4432 109.582 29.0795C109.344 28.7159 109.226 28.2614 109.23 27.7159V19.1818Z" fill="white"/>
<rect x="157" y="12" width="26" height="24" rx="12" fill="#029664"/>
<path d="M173.792 24L166.208 24" stroke="white" stroke-width="3" stroke-linecap="round" stroke-linejoin="round"/>
<path d="M170 27.5L166.208 24L170 20.5" stroke="white" stroke-width="3" stroke-linecap="round" stroke-linejoin="round"/>
<rect x="0.5" y="0.5" width="198" height="47" rx="7.5" stroke="#355B3E"/>
</svg>
