<svg width="257" height="74" viewBox="0 0 257 74" fill="none" xmlns="http://www.w3.org/2000/svg">
<path d="M127.686 2.035C79.9699 2.035 32.3821 6.623 0.171387 14.06V59.829C32.4677 67.377 79.5844 72.039 127.686 72.039C176.131 72.039 224.661 67.34 257 59.718V14.393C224.661 6.734 176.088 2.035 127.686 2.035Z" fill="white"/>
<mask id="mask0_8_570" style="mask-type:luminance" maskUnits="userSpaceOnUse" x="6" y="7" width="245" height="60">
<path d="M6.51074 17.612V56.277C37.2222 62.641 81.9831 66.563 127.729 66.563C173.775 66.563 219.949 62.604 250.704 56.129V17.908C219.949 11.47 173.775 7.474 127.729 7.474C82.3257 7.474 37.1366 11.322 6.51074 17.612Z" fill="white"/>
</mask>
<g mask="url(#mask0_8_570)">
<path d="M250.704 7.474H6.51074V66.563H250.704V7.474Z" fill="url(#paint0_linear_8_570)"/>
</g>
<mask id="mask1_8_570" style="mask-type:luminance" maskUnits="userSpaceOnUse" x="12" y="13" width="233" height="48">
<path d="M12.9357 22.829V51.578C43.1332 57.35 83.0967 60.754 127.943 60.754C173.089 60.754 214.081 57.054 244.278 51.245V23.051C214.081 17.205 173.089 13.32 127.943 13.32C83.4393 13.32 42.9618 17.131 12.9357 22.829Z" fill="white"/>
</mask>
<g mask="url(#mask1_8_570)">
<path d="M244.278 13.32H12.9357V60.754H244.278V13.32Z" fill="url(#paint1_linear_8_570)"/>
</g>
<path d="M126.701 39.331C125.073 39.331 123.746 38.221 123.746 36.889C123.746 35.557 125.073 34.447 126.701 34.447C128.329 34.447 129.657 35.557 129.657 36.889C129.657 38.221 128.329 39.331 126.701 39.331Z" fill="white"/>
<path d="M36.751 36.963C36.751 39.701 36.3655 41.662 35.5945 42.809C34.8235 43.956 33.667 44.511 32.0393 44.511C30.069 44.511 28.784 43.956 28.1843 42.846C27.6275 41.736 27.3277 39.775 27.3277 36.963V36.371C27.3277 33.3 27.6703 31.265 28.3128 30.229C28.9982 29.193 30.1975 28.675 31.9965 28.675C33.7955 28.675 35.0377 29.193 35.6802 30.266C36.3655 31.302 36.6653 33.337 36.6653 36.334V36.963H36.751ZM40.3062 44.141C41.8053 42.365 42.5763 40.071 42.5763 37.222V36.075C42.5763 32.856 41.6768 30.34 39.8778 28.49C38.0788 26.64 35.5088 25.715 32.0822 25.715C28.8697 25.715 26.2997 26.677 24.415 28.527C22.5303 30.414 21.588 32.93 21.588 36.075V37.222C21.588 39.664 22.1877 41.736 23.3442 43.475C24.5007 45.177 26.5567 46.398 29.3837 47.101C29.4693 48.359 30.0262 49.469 31.0542 50.431C32.125 51.393 33.6242 51.874 35.6373 51.874H40.6917V49.395H39.6637H37.6933C36.5368 49.395 35.723 49.21 35.2947 48.84C34.8663 48.47 34.6093 47.878 34.5665 47.064C36.8367 46.879 38.7642 45.917 40.3062 44.141Z" fill="white"/>
<path d="M62.451 41.033C62.451 43.031 61.7229 44.585 60.2237 45.695C58.7245 46.805 56.4544 47.36 53.3275 47.36C49.9865 47.36 47.5879 46.768 46.1315 45.547C44.6752 44.326 43.947 42.55 43.947 40.182V26.011H48.9585V40.774C48.9585 41.921 49.2584 42.772 49.9009 43.364C50.5434 43.919 51.6142 44.215 53.199 44.215C54.6554 44.215 55.6834 43.956 56.3687 43.438C57.054 42.92 57.4395 41.995 57.4395 40.7V26.011H62.4939V41.033H62.451Z" fill="white"/>
<path d="M80.9978 29.156H70.7178V34.817H80.955V37.999H70.7178V43.956H80.9978V47.101H64.9781V26.011H80.9978V29.156Z" fill="white"/>
<path d="M172.576 41.033C172.576 43.031 171.847 44.585 170.348 45.695C168.849 46.805 166.579 47.36 163.452 47.36C160.111 47.36 157.712 46.768 156.256 45.547C154.8 44.326 154.072 42.55 154.072 40.182V26.011H159.083V40.774C159.083 41.921 159.383 42.772 160.025 43.364C160.668 43.919 161.739 44.215 163.324 44.215C164.78 44.215 165.808 43.956 166.536 43.438C167.221 42.92 167.607 41.995 167.607 40.7V26.011H172.661V41.033H172.576Z" fill="white"/>
<path d="M191.122 29.156H180.842V34.817H191.079V37.999H180.842V43.956H191.122V47.101H175.06V26.011H191.122V29.156Z" fill="white"/>
<path d="M204.101 32.153C204.101 32.967 203.801 33.596 203.201 34.003C202.602 34.41 201.617 34.632 200.246 34.632H198.704V29.008H200.589C201.745 29.008 202.602 29.193 203.201 29.6C203.801 30.007 204.101 30.636 204.101 31.561V32.153ZM208.941 39.183C207.956 37.481 206.414 36.371 204.401 35.89C206.2 35.742 207.528 35.335 208.427 34.595C209.327 33.855 209.755 32.893 209.755 31.709V30.562C209.755 29.267 209.241 28.194 208.213 27.343C207.185 26.455 205.472 26.011 202.987 26.011H192.921V47.101H198.704V37.629H200.075C201.659 37.629 202.859 38.369 203.587 39.812C204.315 41.255 204.743 43.697 204.786 47.101H210.483C210.483 43.512 209.969 40.885 208.941 39.183Z" fill="white"/>
<path d="M226.032 36.963C226.032 39.664 225.646 41.588 224.918 42.735C224.19 43.919 222.99 44.474 221.32 44.474C219.307 44.474 218.022 43.919 217.465 42.846C216.908 41.773 216.651 39.775 216.651 36.889V36.371C216.651 33.485 216.951 31.487 217.551 30.377C218.193 29.267 219.435 28.712 221.32 28.712C223.376 28.712 224.661 29.341 225.218 30.599C225.775 31.857 226.032 33.781 226.032 36.371V36.963ZM229.201 28.638C227.445 26.677 224.875 25.715 221.491 25.715C218.022 25.715 215.366 26.677 213.567 28.601C211.768 30.525 210.869 33.041 210.869 36.075V37.296C210.869 40.589 211.854 43.105 213.781 44.844C215.709 46.583 218.236 47.471 221.363 47.471C224.532 47.471 227.06 46.583 228.987 44.844C230.915 43.105 231.857 40.552 231.857 37.222V36.075C231.814 33.078 230.957 30.599 229.201 28.638Z" fill="white"/>
<path d="M93.9764 32.153C93.9764 32.967 93.6766 33.596 93.0769 34.003C92.4772 34.41 91.4921 34.632 90.1214 34.632H88.5366V29.008H90.4212C91.5777 29.008 92.4344 29.193 93.0341 29.6C93.6337 30.007 93.9336 30.636 93.9336 31.561V32.153H93.9764ZM98.8594 39.183C97.8314 37.481 96.3322 36.371 94.3191 35.89C96.1181 35.742 97.4459 35.335 98.3454 34.595C99.2449 33.855 99.6732 32.893 99.6732 31.709V30.562C99.6732 29.267 99.1592 28.194 98.1312 27.343C97.1032 26.455 95.3899 26.011 92.9056 26.011H82.8397V47.101H88.6222V37.629H89.9929C91.5777 37.629 92.7771 38.369 93.5052 39.812C94.2334 41.255 94.6617 43.697 94.7046 47.101H100.401C100.359 43.512 99.8446 40.885 98.8594 39.183Z" fill="white"/>
<path d="M115.907 36.963C115.907 39.664 115.522 41.588 114.793 42.735C114.065 43.919 112.866 44.474 111.195 44.474C109.182 44.474 107.897 43.919 107.34 42.846C106.784 41.773 106.527 39.775 106.527 36.889V36.371C106.527 33.485 106.826 31.487 107.426 30.377C108.026 29.267 109.311 28.712 111.195 28.712C113.251 28.712 114.536 29.341 115.093 30.599C115.65 31.857 115.907 33.781 115.907 36.371V36.963ZM119.077 28.638C117.321 26.677 114.751 25.715 111.367 25.715C107.897 25.715 105.242 26.677 103.443 28.601C101.644 30.525 100.744 33.041 100.744 36.075V37.296C100.744 40.589 101.729 43.105 103.657 44.844C105.584 46.583 108.111 47.471 111.238 47.471C114.408 47.471 116.935 46.583 118.863 44.844C120.79 43.105 121.732 40.552 121.732 37.222V36.075C121.732 33.078 120.833 30.599 119.077 28.638Z" fill="white"/>
<path d="M146.833 36.963C146.833 39.701 146.447 41.662 145.676 42.809C144.905 43.956 143.749 44.511 142.121 44.511C140.151 44.511 138.866 43.956 138.266 42.846C137.709 41.736 137.409 39.775 137.409 36.963V36.371C137.409 33.3 137.752 31.265 138.395 30.229C139.08 29.193 140.279 28.675 142.078 28.675C143.877 28.675 145.119 29.193 145.762 30.266C146.447 31.302 146.747 33.337 146.747 36.334V36.963H146.833ZM150.388 44.141C151.887 42.365 152.658 40.071 152.658 37.222V36.075C152.658 32.856 151.759 30.34 149.96 28.49C148.161 26.64 145.548 25.715 142.164 25.715C138.951 25.715 136.381 26.677 134.497 28.527C132.612 30.414 131.67 32.93 131.67 36.075V37.222C131.67 39.664 132.269 41.736 133.426 43.475C134.582 45.177 136.638 46.398 139.465 47.101C139.551 48.359 140.108 49.469 141.136 50.431C142.207 51.393 143.706 51.874 145.719 51.874H150.816V49.395H149.788H147.775C146.576 49.395 145.805 49.21 145.376 48.84C144.948 48.47 144.691 47.878 144.648 47.064C146.961 46.879 148.889 45.917 150.388 44.141Z" fill="white"/>
<path d="M126.701 38.813C125.416 38.813 124.388 37.962 124.388 36.889C124.388 35.816 125.416 34.965 126.701 34.965C127.986 34.965 129.014 35.816 129.014 36.889C129.014 37.925 127.986 38.813 126.701 38.813Z" fill="#EC1C24"/>
<path d="M110.339 21.645V15.54H112.223V20.239H115.393V21.645H110.339Z" fill="white"/>
<path d="M118.648 21.497C118.22 21.312 117.877 21.09 117.62 20.794C117.321 20.498 117.149 20.165 116.978 19.795C116.849 19.425 116.764 19.018 116.764 18.574C116.764 18.13 116.849 17.723 116.978 17.353C117.106 16.983 117.321 16.65 117.62 16.354C117.92 16.058 118.263 15.836 118.691 15.688C119.12 15.503 119.591 15.429 120.148 15.429C120.704 15.429 121.176 15.503 121.604 15.688C122.032 15.873 122.375 16.095 122.675 16.354C122.975 16.65 123.189 16.983 123.317 17.353C123.446 17.723 123.531 18.13 123.531 18.574C123.531 19.018 123.446 19.425 123.317 19.795C123.189 20.165 122.975 20.498 122.675 20.794C122.375 21.09 122.032 21.312 121.604 21.497C121.176 21.682 120.704 21.756 120.148 21.756C119.548 21.756 119.077 21.682 118.648 21.497ZM119.034 19.869C119.162 20.017 119.291 20.165 119.505 20.239C119.676 20.313 119.891 20.387 120.105 20.387C120.319 20.387 120.533 20.35 120.704 20.239C120.876 20.165 121.047 20.017 121.133 19.869C121.261 19.721 121.347 19.499 121.39 19.277C121.433 19.055 121.475 18.833 121.475 18.574C121.475 18.315 121.433 18.093 121.39 17.871C121.347 17.649 121.218 17.464 121.133 17.316C121.004 17.168 120.876 17.02 120.704 16.946C120.533 16.872 120.319 16.798 120.105 16.798C119.891 16.798 119.676 16.835 119.505 16.946C119.334 17.057 119.162 17.168 119.077 17.316C118.948 17.464 118.863 17.649 118.82 17.871C118.777 18.093 118.734 18.315 118.734 18.574C118.734 18.833 118.777 19.055 118.82 19.277C118.82 19.536 118.905 19.721 119.034 19.869Z" fill="white"/>
<path d="M124.559 21.904C124.945 21.83 125.202 21.719 125.373 21.571C125.545 21.423 125.63 21.238 125.63 20.979V15.54H127.515V21.09C127.515 21.386 127.472 21.645 127.344 21.904C127.215 22.126 127.044 22.348 126.83 22.496C126.615 22.681 126.316 22.792 126.016 22.903C125.716 23.014 125.33 23.088 124.945 23.162L124.559 21.904Z" fill="white"/>
<path d="M128.928 21.645L131.67 15.54H133.426L136.167 21.645H134.154L133.683 20.609H131.327L130.856 21.645H128.928ZM131.755 19.351H133.297L132.526 17.501L131.755 19.351Z" fill="white"/>
<path d="M138.78 19.832C138.951 20.017 139.166 20.165 139.423 20.276C139.68 20.424 139.979 20.461 140.322 20.461C140.579 20.461 140.793 20.424 140.965 20.35C141.136 20.276 141.222 20.165 141.222 19.98C141.222 19.906 141.222 19.832 141.179 19.758C141.136 19.684 141.093 19.61 140.965 19.573C140.879 19.499 140.708 19.462 140.536 19.388C140.365 19.314 140.108 19.24 139.808 19.166C139.465 19.055 139.166 18.981 138.909 18.87C138.652 18.759 138.395 18.648 138.223 18.5C138.009 18.352 137.881 18.167 137.795 17.982C137.709 17.797 137.624 17.538 137.624 17.279C137.624 16.983 137.666 16.761 137.795 16.539C137.923 16.317 138.095 16.132 138.352 15.947C138.609 15.799 138.866 15.651 139.208 15.577C139.551 15.503 139.937 15.429 140.322 15.429C140.665 15.429 141.007 15.466 141.264 15.54C141.521 15.614 141.778 15.688 141.993 15.762C142.207 15.873 142.378 15.984 142.549 16.095C142.721 16.206 142.849 16.354 142.935 16.465L141.65 17.316C141.607 17.242 141.521 17.168 141.436 17.094C141.35 17.02 141.264 16.946 141.136 16.872C141.007 16.798 140.879 16.761 140.75 16.724C140.579 16.687 140.451 16.65 140.279 16.65C139.979 16.65 139.765 16.687 139.637 16.761C139.508 16.835 139.423 16.946 139.423 17.094C139.423 17.168 139.423 17.242 139.465 17.316C139.508 17.39 139.594 17.427 139.68 17.501C139.808 17.575 139.937 17.612 140.108 17.686C140.279 17.76 140.536 17.797 140.793 17.871C141.136 17.945 141.436 18.056 141.693 18.167C141.95 18.278 142.207 18.389 142.378 18.537C142.592 18.685 142.721 18.87 142.849 19.092C142.978 19.314 143.021 19.573 143.021 19.869C143.021 20.202 142.935 20.461 142.806 20.72C142.635 20.942 142.464 21.164 142.207 21.312C141.95 21.46 141.65 21.571 141.307 21.645C140.965 21.719 140.622 21.756 140.236 21.756C139.594 21.756 139.037 21.645 138.566 21.46C138.095 21.275 137.709 21.016 137.452 20.683L138.78 19.832Z" fill="white"/>
<path d="M127.601 64.084C87.8941 64.084 43.7757 60.162 9.55189 53.576L9.20923 53.502V20.35L9.55189 20.276C43.4759 13.838 87.5942 9.99 127.601 9.99H127.815C175.788 9.99 221.149 15.466 247.577 20.609L247.919 20.683V53.724L247.577 53.798C214.724 60.125 168.721 64.084 127.601 64.084ZM10.0659 52.947C44.1612 59.459 88.0654 63.381 127.558 63.381C168.506 63.381 214.21 59.459 247.02 53.132V21.312C220.592 16.169 175.531 10.73 127.815 10.73H127.601C87.8084 10.73 43.9042 14.541 10.0659 20.942V52.947Z" fill="url(#paint2_linear_8_570)"/>
<defs>
<linearGradient id="paint0_linear_8_570" x1="128.604" y1="66.5677" x2="128.604" y2="7.47973" gradientUnits="userSpaceOnUse">
<stop stop-color="#005C36"/>
<stop offset="0.181" stop-color="#007941"/>
<stop offset="0.4001" stop-color="#00A551"/>
<stop offset="0.9971" stop-color="#00A551"/>
</linearGradient>
<linearGradient id="paint1_linear_8_570" x1="128.607" y1="60.7366" x2="128.607" y2="13.3122" gradientUnits="userSpaceOnUse">
<stop stop-color="#00703F"/>
<stop offset="0.2947" stop-color="#00A551"/>
<stop offset="0.85" stop-color="#00A961"/>
<stop offset="0.9249" stop-color="#34AF72"/>
<stop offset="1" stop-color="white"/>
</linearGradient>
<linearGradient id="paint2_linear_8_570" x1="9.20752" y1="37.0404" x2="247.919" y2="37.0404" gradientUnits="userSpaceOnUse">
<stop stop-color="#EA2127"/>
<stop offset="1" stop-color="#FBED1D"/>
</linearGradient>
</defs>
</svg>
