<svg width="536" height="144" viewBox="0 0 536 144" fill="none" xmlns="http://www.w3.org/2000/svg">
<path d="M16.52 29.36C13.8533 29.36 11.52 28.7733 9.52 27.6C7.54667 26.4 6.01333 24.72 4.92 22.56C3.85333 20.3733 3.32 17.8133 3.32 14.88C3.32 12.6667 3.62667 10.68 4.24 8.92C4.85333 7.13333 5.73333 5.61333 6.88 4.36C8.02667 3.08 9.41333 2.10667 11.04 1.44C12.6667 0.773332 14.4933 0.439998 16.52 0.439998C19.2133 0.439998 21.5467 1.02667 23.52 2.2C25.4933 3.37333 27.0133 5.04 28.08 7.2C29.1733 9.36 29.72 11.9067 29.72 14.84C29.72 17.0533 29.4133 19.0533 28.8 20.84C28.1867 22.6267 27.2933 24.16 26.12 25.44C24.9733 26.72 23.5867 27.6933 21.96 28.36C20.3333 29.0267 18.52 29.36 16.52 29.36ZM16.52 25.76C18.3867 25.76 19.9733 25.3333 21.28 24.48C22.6133 23.6267 23.6267 22.3867 24.32 20.76C25.04 19.1333 25.4 17.1733 25.4 14.88C25.4 11.44 24.6267 8.77333 23.08 6.88C21.5333 4.98667 19.3467 4.04 16.52 4.04C14.6533 4.04 13.0533 4.46667 11.72 5.32C10.4133 6.14667 9.4 7.37333 8.68 9C7.98667 10.6267 7.64 12.5867 7.64 14.88C7.64 18.2933 8.41333 20.96 9.96 22.88C11.5333 24.8 13.72 25.76 16.52 25.76ZM47.4825 29.28C46.8425 29.28 46.3492 29.1067 46.0025 28.76C45.6558 28.3867 45.4825 27.88 45.4825 27.24V11.24C45.4825 10.5733 45.6558 10.0667 46.0025 9.72C46.3492 9.37333 46.8292 9.2 47.4425 9.2C48.0825 9.2 48.5625 9.37333 48.8825 9.72C49.2292 10.0667 49.4025 10.5733 49.4025 11.24V14.52L48.9625 13.64C49.4958 12.2267 50.3225 11.12 51.4425 10.32C52.5625 9.52 53.9092 9.12 55.4825 9.12C57.1092 9.12 58.4292 9.50667 59.4425 10.28C60.4558 11.0533 61.1492 12.24 61.5225 13.84H60.9625C61.4692 12.3733 62.3358 11.2267 63.5625 10.4C64.7892 9.54667 66.2158 9.12 67.8425 9.12C69.3358 9.12 70.5625 9.41333 71.5225 10C72.4825 10.56 73.2025 11.4267 73.6825 12.6C74.1625 13.7467 74.4025 15.2 74.4025 16.96V27.24C74.4025 27.88 74.2158 28.3867 73.8425 28.76C73.4958 29.1067 73.0025 29.28 72.3625 29.28C71.7225 29.28 71.2292 29.1067 70.8825 28.76C70.5358 28.3867 70.3625 27.88 70.3625 27.24V17.16C70.3625 15.5067 70.0692 14.2933 69.4825 13.52C68.9225 12.7467 67.9892 12.36 66.6825 12.36C65.2158 12.36 64.0558 12.8667 63.2025 13.88C62.3492 14.8933 61.9225 16.2933 61.9225 18.08V27.24C61.9225 27.88 61.7492 28.3867 61.4025 28.76C61.0558 29.1067 60.5625 29.28 59.9225 29.28C59.2825 29.28 58.7758 29.1067 58.4025 28.76C58.0558 28.3867 57.8825 27.88 57.8825 27.24V17.16C57.8825 15.5067 57.6025 14.2933 57.0425 13.52C56.4825 12.7467 55.5492 12.36 54.2425 12.36C52.7758 12.36 51.6158 12.8667 50.7625 13.88C49.9358 14.8933 49.5225 16.2933 49.5225 18.08V27.24C49.5225 28.6 48.8425 29.28 47.4825 29.28ZM89.2109 29.36C87.0776 29.36 85.2376 28.96 83.6909 28.16C82.1709 27.3333 80.9843 26.1733 80.1309 24.68C79.3043 23.16 78.8909 21.36 78.8909 19.28C78.8909 17.2533 79.3043 15.48 80.1309 13.96C80.9576 12.44 82.0909 11.2533 83.5309 10.4C84.9709 9.54667 86.6109 9.12 88.4509 9.12C89.8109 9.12 91.0243 9.34667 92.0909 9.8C93.1576 10.2267 94.0643 10.8667 94.8109 11.72C95.5843 12.5467 96.1576 13.56 96.5309 14.76C96.9309 15.96 97.1309 17.3067 97.1309 18.8C97.1309 19.2533 96.9976 19.6 96.7309 19.84C96.4643 20.0533 96.0643 20.16 95.5309 20.16H82.0909V17.68H94.4109L93.7309 18.24C93.7309 16.9067 93.5309 15.7733 93.1309 14.84C92.7576 13.9067 92.1843 13.2 91.4109 12.72C90.6643 12.2133 89.7309 11.96 88.6109 11.96C87.3576 11.96 86.2909 12.2533 85.4109 12.84C84.5576 13.4267 83.9043 14.24 83.4509 15.28C82.9976 16.32 82.7709 17.5333 82.7709 18.92V19.16C82.7709 21.5067 83.3176 23.28 84.4109 24.48C85.5309 25.6533 87.1443 26.24 89.2509 26.24C90.0509 26.24 90.8909 26.1333 91.7709 25.92C92.6776 25.7067 93.5309 25.3467 94.3309 24.84C94.7843 24.5733 95.1843 24.4533 95.5309 24.48C95.9043 24.5067 96.1976 24.6267 96.4109 24.84C96.6509 25.0533 96.7976 25.32 96.8509 25.64C96.9043 25.96 96.8509 26.2933 96.6909 26.64C96.5309 26.96 96.2509 27.2533 95.8509 27.52C94.9443 28.1333 93.8909 28.6 92.6909 28.92C91.4909 29.2133 90.3309 29.36 89.2109 29.36ZM107.815 29.36C105.735 29.36 104.162 28.76 103.095 27.56C102.055 26.3333 101.535 24.5733 101.535 22.28V2.56C101.535 1.89333 101.709 1.38666 102.055 1.04C102.402 0.693332 102.895 0.52 103.535 0.52C104.175 0.52 104.669 0.693332 105.015 1.04C105.389 1.38666 105.575 1.89333 105.575 2.56V22.04C105.575 23.3733 105.842 24.3733 106.375 25.04C106.935 25.68 107.735 26 108.775 26C109.015 26 109.229 26 109.415 26C109.602 25.9733 109.789 25.9467 109.975 25.92C110.295 25.8933 110.522 25.9867 110.655 26.2C110.789 26.3867 110.855 26.7867 110.855 27.4C110.855 27.96 110.735 28.4 110.495 28.72C110.255 29.0133 109.869 29.2 109.335 29.28C109.095 29.3067 108.842 29.32 108.575 29.32C108.309 29.3467 108.055 29.36 107.815 29.36ZM115.762 29.28C115.122 29.28 114.629 29.1067 114.282 28.76C113.935 28.3867 113.762 27.88 113.762 27.24V2.56C113.762 1.89333 113.935 1.38666 114.282 1.04C114.629 0.693332 115.122 0.52 115.762 0.52C116.402 0.52 116.895 0.693332 117.242 1.04C117.615 1.38666 117.802 1.89333 117.802 2.56V13.64H117.242C117.829 12.1467 118.749 11.0267 120.002 10.28C121.255 9.50667 122.695 9.12 124.322 9.12C125.869 9.12 127.149 9.41333 128.162 10C129.202 10.56 129.975 11.4267 130.482 12.6C130.989 13.7467 131.242 15.2 131.242 16.96V27.24C131.242 27.88 131.069 28.3867 130.722 28.76C130.375 29.1067 129.882 29.28 129.242 29.28C128.575 29.28 128.069 29.1067 127.722 28.76C127.375 28.3867 127.202 27.88 127.202 27.24V17.2C127.202 15.52 126.869 14.2933 126.202 13.52C125.562 12.7467 124.549 12.36 123.162 12.36C121.535 12.36 120.229 12.8667 119.242 13.88C118.282 14.8933 117.802 16.2533 117.802 17.96V27.24C117.802 28.6 117.122 29.28 115.762 29.28ZM145.289 29.36C143.315 29.36 141.609 28.9467 140.169 28.12C138.755 27.2933 137.649 26.12 136.849 24.6C136.049 23.08 135.649 21.2933 135.649 19.24C135.649 17.6667 135.875 16.2667 136.329 15.04C136.782 13.8133 137.422 12.76 138.249 11.88C139.102 10.9733 140.115 10.2933 141.289 9.84C142.489 9.36 143.822 9.12 145.289 9.12C147.235 9.12 148.915 9.53333 150.329 10.36C151.769 11.1867 152.889 12.36 153.689 13.88C154.489 15.3733 154.889 17.16 154.889 19.24C154.889 20.7867 154.662 22.1867 154.209 23.44C153.755 24.6933 153.102 25.76 152.249 26.64C151.422 27.52 150.409 28.2 149.209 28.68C148.035 29.1333 146.729 29.36 145.289 29.36ZM145.289 26.24C146.382 26.24 147.342 25.9733 148.169 25.44C148.995 24.9067 149.635 24.12 150.089 23.08C150.569 22.04 150.809 20.76 150.809 19.24C150.809 16.9467 150.302 15.2133 149.289 14.04C148.275 12.8667 146.942 12.28 145.289 12.28C144.169 12.28 143.195 12.5467 142.369 13.08C141.542 13.5867 140.889 14.36 140.409 15.4C139.955 16.44 139.729 17.72 139.729 19.24C139.729 21.5067 140.235 23.24 141.249 24.44C142.262 25.64 143.609 26.24 145.289 26.24ZM161.466 29.28C160.799 29.28 160.293 29.1067 159.946 28.76C159.599 28.3867 159.426 27.88 159.426 27.24V11.24C159.426 10.5733 159.599 10.0667 159.946 9.72C160.293 9.37333 160.773 9.2 161.386 9.2C162.026 9.2 162.506 9.37333 162.826 9.72C163.173 10.0667 163.346 10.5733 163.346 11.24V14.16H162.946C163.373 12.56 164.159 11.3467 165.306 10.52C166.453 9.69333 167.919 9.21333 169.706 9.08C170.186 9.05333 170.559 9.17333 170.826 9.44C171.119 9.70667 171.279 10.12 171.306 10.68C171.359 11.24 171.239 11.6933 170.946 12.04C170.653 12.36 170.199 12.5467 169.586 12.6L168.826 12.68C167.093 12.84 165.773 13.3867 164.866 14.32C163.959 15.2533 163.506 16.5333 163.506 18.16V27.24C163.506 27.88 163.333 28.3867 162.986 28.76C162.666 29.1067 162.159 29.28 161.466 29.28ZM191.735 29.36C190.561 29.36 189.348 29.2267 188.095 28.96C186.868 28.6933 185.735 28.24 184.695 27.6C184.348 27.36 184.108 27.0933 183.975 26.8C183.841 26.5067 183.788 26.2133 183.815 25.92C183.868 25.6 183.988 25.3333 184.175 25.12C184.388 24.88 184.641 24.7333 184.935 24.68C185.255 24.6267 185.588 24.6933 185.935 24.88C186.975 25.4667 187.975 25.88 188.935 26.12C189.895 26.3333 190.841 26.44 191.775 26.44C193.188 26.44 194.255 26.1867 194.975 25.68C195.695 25.1733 196.055 24.4933 196.055 23.64C196.055 22.9467 195.815 22.4133 195.335 22.04C194.855 21.64 194.135 21.3333 193.175 21.12L189.375 20.36C187.721 20.0133 186.468 19.4 185.615 18.52C184.761 17.64 184.335 16.52 184.335 15.16C184.335 13.9333 184.668 12.8667 185.335 11.96C186.001 11.0533 186.935 10.36 188.135 9.88C189.335 9.37333 190.721 9.12 192.295 9.12C193.468 9.12 194.575 9.26667 195.615 9.56C196.655 9.85333 197.615 10.2933 198.495 10.88C198.841 11.0667 199.068 11.32 199.175 11.64C199.281 11.9333 199.295 12.2267 199.215 12.52C199.161 12.8133 199.028 13.08 198.815 13.32C198.601 13.5333 198.335 13.6667 198.015 13.72C197.721 13.7467 197.388 13.6667 197.015 13.48C196.215 12.9733 195.415 12.6133 194.615 12.4C193.841 12.1867 193.068 12.08 192.295 12.08C190.881 12.08 189.815 12.3467 189.095 12.88C188.401 13.3867 188.055 14.08 188.055 14.96C188.055 15.6267 188.268 16.1733 188.695 16.6C189.121 17.0267 189.788 17.3333 190.695 17.52L194.495 18.28C196.228 18.6267 197.535 19.2133 198.415 20.04C199.321 20.8667 199.775 21.9867 199.775 23.4C199.775 25.24 199.041 26.6933 197.575 27.76C196.108 28.8267 194.161 29.36 191.735 29.36ZM206.27 29.24C205.63 29.24 205.136 29.0533 204.79 28.68C204.443 28.28 204.27 27.7333 204.27 27.04V11.44C204.27 10.7467 204.443 10.2133 204.79 9.84C205.136 9.46667 205.63 9.28 206.27 9.28C206.91 9.28 207.403 9.46667 207.75 9.84C208.123 10.2133 208.31 10.7467 208.31 11.44V27.04C208.31 27.7333 208.136 28.28 207.79 28.68C207.443 29.0533 206.936 29.24 206.27 29.24ZM206.27 5.12C205.47 5.12 204.843 4.92 204.39 4.52C203.963 4.12 203.75 3.56 203.75 2.84C203.75 2.09333 203.963 1.53333 204.39 1.16C204.843 0.759999 205.47 0.559999 206.27 0.559999C207.07 0.559999 207.683 0.759999 208.11 1.16C208.563 1.53333 208.79 2.09333 208.79 2.84C208.79 3.56 208.563 4.12 208.11 4.52C207.683 4.92 207.07 5.12 206.27 5.12ZM220.836 29.36C219.663 29.36 218.45 29.2267 217.196 28.96C215.97 28.6933 214.836 28.24 213.796 27.6C213.45 27.36 213.21 27.0933 213.076 26.8C212.943 26.5067 212.89 26.2133 212.916 25.92C212.97 25.6 213.09 25.3333 213.276 25.12C213.49 24.88 213.743 24.7333 214.036 24.68C214.356 24.6267 214.69 24.6933 215.036 24.88C216.076 25.4667 217.076 25.88 218.036 26.12C218.996 26.3333 219.943 26.44 220.876 26.44C222.29 26.44 223.356 26.1867 224.076 25.68C224.796 25.1733 225.156 24.4933 225.156 23.64C225.156 22.9467 224.916 22.4133 224.436 22.04C223.956 21.64 223.236 21.3333 222.276 21.12L218.476 20.36C216.823 20.0133 215.57 19.4 214.716 18.52C213.863 17.64 213.436 16.52 213.436 15.16C213.436 13.9333 213.77 12.8667 214.436 11.96C215.103 11.0533 216.036 10.36 217.236 9.88C218.436 9.37333 219.823 9.12 221.396 9.12C222.57 9.12 223.676 9.26667 224.716 9.56C225.756 9.85333 226.716 10.2933 227.596 10.88C227.943 11.0667 228.17 11.32 228.276 11.64C228.383 11.9333 228.396 12.2267 228.316 12.52C228.263 12.8133 228.13 13.08 227.916 13.32C227.703 13.5333 227.436 13.6667 227.116 13.72C226.823 13.7467 226.49 13.6667 226.116 13.48C225.316 12.9733 224.516 12.6133 223.716 12.4C222.943 12.1867 222.17 12.08 221.396 12.08C219.983 12.08 218.916 12.3467 218.196 12.88C217.503 13.3867 217.156 14.08 217.156 14.96C217.156 15.6267 217.37 16.1733 217.796 16.6C218.223 17.0267 218.89 17.3333 219.796 17.52L223.596 18.28C225.33 18.6267 226.636 19.2133 227.516 20.04C228.423 20.8667 228.876 21.9867 228.876 23.4C228.876 25.24 228.143 26.6933 226.676 27.76C225.21 28.8267 223.263 29.36 220.836 29.36ZM241.496 29.36C239.896 29.36 238.549 29.08 237.456 28.52C236.363 27.96 235.549 27.1333 235.016 26.04C234.483 24.9467 234.216 23.6133 234.216 22.04V12.6H231.816C231.283 12.6 230.869 12.4667 230.576 12.2C230.283 11.9067 230.136 11.52 230.136 11.04C230.136 10.5333 230.283 10.1467 230.576 9.88C230.869 9.61333 231.283 9.48 231.816 9.48H234.216V5.36C234.216 4.69333 234.389 4.18667 234.736 3.84C235.109 3.49333 235.616 3.32 236.256 3.32C236.896 3.32 237.389 3.49333 237.736 3.84C238.083 4.18667 238.256 4.69333 238.256 5.36V9.48H242.936C243.469 9.48 243.883 9.61333 244.176 9.88C244.469 10.1467 244.616 10.5333 244.616 11.04C244.616 11.52 244.469 11.9067 244.176 12.2C243.883 12.4667 243.469 12.6 242.936 12.6H238.256V21.72C238.256 23.1333 238.549 24.2 239.136 24.92C239.749 25.64 240.736 26 242.096 26C242.576 26 242.989 25.96 243.336 25.88C243.709 25.7733 244.016 25.7067 244.256 25.68C244.549 25.68 244.789 25.7867 244.976 26C245.163 26.1867 245.256 26.56 245.256 27.12C245.256 27.52 245.176 27.8933 245.016 28.24C244.883 28.5867 244.629 28.8133 244.256 28.92C243.936 29.0267 243.496 29.12 242.936 29.2C242.403 29.3067 241.923 29.36 241.496 29.36ZM256.75 29.36C254.617 29.36 252.777 28.96 251.23 28.16C249.71 27.3333 248.523 26.1733 247.67 24.68C246.843 23.16 246.43 21.36 246.43 19.28C246.43 17.2533 246.843 15.48 247.67 13.96C248.497 12.44 249.63 11.2533 251.07 10.4C252.51 9.54667 254.15 9.12 255.99 9.12C257.35 9.12 258.563 9.34667 259.63 9.8C260.697 10.2267 261.603 10.8667 262.35 11.72C263.123 12.5467 263.697 13.56 264.07 14.76C264.47 15.96 264.67 17.3067 264.67 18.8C264.67 19.2533 264.537 19.6 264.27 19.84C264.003 20.0533 263.603 20.16 263.07 20.16H249.63V17.68H261.95L261.27 18.24C261.27 16.9067 261.07 15.7733 260.67 14.84C260.297 13.9067 259.723 13.2 258.95 12.72C258.203 12.2133 257.27 11.96 256.15 11.96C254.897 11.96 253.83 12.2533 252.95 12.84C252.097 13.4267 251.443 14.24 250.99 15.28C250.537 16.32 250.31 17.5333 250.31 18.92V19.16C250.31 21.5067 250.857 23.28 251.95 24.48C253.07 25.6533 254.683 26.24 256.79 26.24C257.59 26.24 258.43 26.1333 259.31 25.92C260.217 25.7067 261.07 25.3467 261.87 24.84C262.323 24.5733 262.723 24.4533 263.07 24.48C263.443 24.5067 263.737 24.6267 263.95 24.84C264.19 25.0533 264.337 25.32 264.39 25.64C264.443 25.96 264.39 26.2933 264.23 26.64C264.07 26.96 263.79 27.2533 263.39 27.52C262.483 28.1333 261.43 28.6 260.23 28.92C259.03 29.2133 257.87 29.36 256.75 29.36ZM271.154 29.28C270.514 29.28 270.021 29.1067 269.674 28.76C269.328 28.3867 269.154 27.88 269.154 27.24V11.24C269.154 10.5733 269.328 10.0667 269.674 9.72C270.021 9.37333 270.501 9.2 271.114 9.2C271.754 9.2 272.234 9.37333 272.554 9.72C272.901 10.0667 273.074 10.5733 273.074 11.24V14.52L272.634 13.64C273.168 12.2267 273.994 11.12 275.114 10.32C276.234 9.52 277.581 9.12 279.154 9.12C280.781 9.12 282.101 9.50667 283.114 10.28C284.128 11.0533 284.821 12.24 285.194 13.84H284.634C285.141 12.3733 286.008 11.2267 287.234 10.4C288.461 9.54667 289.888 9.12 291.514 9.12C293.008 9.12 294.234 9.41333 295.194 10C296.154 10.56 296.874 11.4267 297.354 12.6C297.834 13.7467 298.074 15.2 298.074 16.96V27.24C298.074 27.88 297.888 28.3867 297.514 28.76C297.168 29.1067 296.674 29.28 296.034 29.28C295.394 29.28 294.901 29.1067 294.554 28.76C294.208 28.3867 294.034 27.88 294.034 27.24V17.16C294.034 15.5067 293.741 14.2933 293.154 13.52C292.594 12.7467 291.661 12.36 290.354 12.36C288.888 12.36 287.728 12.8667 286.874 13.88C286.021 14.8933 285.594 16.2933 285.594 18.08V27.24C285.594 27.88 285.421 28.3867 285.074 28.76C284.728 29.1067 284.234 29.28 283.594 29.28C282.954 29.28 282.448 29.1067 282.074 28.76C281.728 28.3867 281.554 27.88 281.554 27.24V17.16C281.554 15.5067 281.274 14.2933 280.714 13.52C280.154 12.7467 279.221 12.36 277.914 12.36C276.448 12.36 275.288 12.8667 274.434 13.88C273.608 14.8933 273.194 16.2933 273.194 18.08V27.24C273.194 28.6 272.514 29.28 271.154 29.28ZM309.963 29.36C308.603 29.36 307.376 29.0933 306.283 28.56C305.216 28.0267 304.376 27.3067 303.763 26.4C303.149 25.4933 302.843 24.4667 302.843 23.32C302.843 21.88 303.203 20.7467 303.923 19.92C304.669 19.0667 305.883 18.4667 307.563 18.12C309.269 17.7467 311.563 17.56 314.443 17.56H316.323V20.04H314.483C312.563 20.04 311.043 20.1333 309.923 20.32C308.803 20.5067 308.003 20.8267 307.523 21.28C307.069 21.7067 306.843 22.3067 306.843 23.08C306.843 24.0933 307.189 24.92 307.883 25.56C308.576 26.1733 309.536 26.48 310.763 26.48C311.749 26.48 312.616 26.2533 313.363 25.8C314.109 25.32 314.696 24.68 315.123 23.88C315.576 23.08 315.803 22.16 315.803 21.12V16.52C315.803 15 315.483 13.9067 314.843 13.24C314.203 12.5733 313.149 12.24 311.683 12.24C310.829 12.24 309.936 12.3467 309.003 12.56C308.096 12.7733 307.149 13.1333 306.163 13.64C305.709 13.8533 305.323 13.92 305.003 13.84C304.683 13.76 304.429 13.5867 304.243 13.32C304.056 13.0267 303.949 12.72 303.923 12.4C303.923 12.0533 304.003 11.72 304.163 11.4C304.349 11.08 304.656 10.84 305.083 10.68C306.256 10.12 307.416 9.72 308.563 9.48C309.709 9.24 310.789 9.12 311.803 9.12C313.589 9.12 315.056 9.4 316.203 9.96C317.376 10.52 318.243 11.3733 318.803 12.52C319.363 13.6667 319.643 15.1467 319.643 16.96V27.24C319.643 27.88 319.483 28.3867 319.163 28.76C318.843 29.1067 318.376 29.28 317.763 29.28C317.176 29.28 316.709 29.1067 316.363 28.76C316.016 28.3867 315.843 27.88 315.843 27.24V24.64H316.203C315.989 25.6267 315.589 26.48 315.003 27.2C314.443 27.8933 313.736 28.4267 312.883 28.8C312.029 29.1733 311.056 29.36 309.963 29.36ZM343.194 29.36C341.487 29.36 339.981 28.96 338.674 28.16C337.394 27.3333 336.394 26.16 335.674 24.64C334.954 23.0933 334.594 21.2933 334.594 19.24C334.594 17.1333 334.954 15.3333 335.674 13.84C336.394 12.3467 337.394 11.1867 338.674 10.36C339.981 9.53333 341.487 9.12 343.194 9.12C344.901 9.12 346.367 9.54667 347.594 10.4C348.847 11.2267 349.687 12.3467 350.114 13.76H349.674V2.56C349.674 1.89333 349.847 1.38666 350.194 1.04C350.541 0.693332 351.034 0.52 351.674 0.52C352.314 0.52 352.807 0.693332 353.154 1.04C353.527 1.38666 353.714 1.89333 353.714 2.56V27.24C353.714 27.88 353.541 28.3867 353.194 28.76C352.847 29.1067 352.354 29.28 351.714 29.28C351.074 29.28 350.581 29.1067 350.234 28.76C349.887 28.3867 349.714 27.88 349.714 27.24V23.72L350.154 24.6C349.727 26.04 348.887 27.2 347.634 28.08C346.407 28.9333 344.927 29.36 343.194 29.36ZM344.234 26.24C345.327 26.24 346.287 25.9733 347.114 25.44C347.941 24.9067 348.581 24.12 349.034 23.08C349.514 22.04 349.754 20.76 349.754 19.24C349.754 16.9467 349.247 15.2133 348.234 14.04C347.221 12.8667 345.887 12.28 344.234 12.28C343.114 12.28 342.141 12.5467 341.314 13.08C340.487 13.5867 339.834 14.36 339.354 15.4C338.901 16.44 338.674 17.72 338.674 19.24C338.674 21.5067 339.181 23.24 340.194 24.44C341.207 25.64 342.554 26.24 344.234 26.24ZM368.547 29.36C366.414 29.36 364.574 28.96 363.027 28.16C361.507 27.3333 360.32 26.1733 359.467 24.68C358.64 23.16 358.227 21.36 358.227 19.28C358.227 17.2533 358.64 15.48 359.467 13.96C360.294 12.44 361.427 11.2533 362.867 10.4C364.307 9.54667 365.947 9.12 367.787 9.12C369.147 9.12 370.36 9.34667 371.427 9.8C372.494 10.2267 373.4 10.8667 374.147 11.72C374.92 12.5467 375.494 13.56 375.867 14.76C376.267 15.96 376.467 17.3067 376.467 18.8C376.467 19.2533 376.334 19.6 376.067 19.84C375.8 20.0533 375.4 20.16 374.867 20.16H361.427V17.68H373.747L373.067 18.24C373.067 16.9067 372.867 15.7733 372.467 14.84C372.094 13.9067 371.52 13.2 370.747 12.72C370 12.2133 369.067 11.96 367.947 11.96C366.694 11.96 365.627 12.2533 364.747 12.84C363.894 13.4267 363.24 14.24 362.787 15.28C362.334 16.32 362.107 17.5333 362.107 18.92V19.16C362.107 21.5067 362.654 23.28 363.747 24.48C364.867 25.6533 366.48 26.24 368.587 26.24C369.387 26.24 370.227 26.1333 371.107 25.92C372.014 25.7067 372.867 25.3467 373.667 24.84C374.12 24.5733 374.52 24.4533 374.867 24.48C375.24 24.5067 375.534 24.6267 375.747 24.84C375.987 25.0533 376.134 25.32 376.187 25.64C376.24 25.96 376.187 26.2933 376.027 26.64C375.867 26.96 375.587 27.2533 375.187 27.52C374.28 28.1333 373.227 28.6 372.027 28.92C370.827 29.2133 369.667 29.36 368.547 29.36ZM12.68 74.56C11.24 74.56 9.84 74.4133 8.48 74.12C7.14667 73.8267 5.93333 73.3467 4.84 72.68C4.44 72.4667 4.17333 72.2 4.04 71.88C3.90667 71.5867 3.86667 71.28 3.92 70.96C4 70.64 4.14667 70.36 4.36 70.12C4.57333 69.88 4.82667 69.72 5.12 69.64C5.44 69.56 5.77333 69.6133 6.12 69.8C7.29333 70.44 8.4 70.8667 9.44 71.08C10.5067 71.32 11.4933 71.44 12.4 71.44C14.2667 71.44 15.6667 70.96 16.6 70C17.5333 69.0667 18 67.68 18 65.84V61.76H18.36C17.96 63.2267 17.12 64.3867 15.84 65.24C14.56 66.0933 13.08 66.52 11.4 66.52C9.64 66.52 8.10667 66.12 6.8 65.32C5.49333 64.4933 4.48 63.36 3.76 61.92C3.04 60.4533 2.68 58.7467 2.68 56.8C2.68 55.3333 2.88 54.0133 3.28 52.84C3.70667 51.6667 4.29333 50.6533 5.04 49.8C5.81333 48.9467 6.73333 48.2933 7.8 47.84C8.89333 47.36 10.0933 47.12 11.4 47.12C13.1067 47.12 14.5867 47.5467 15.84 48.4C17.12 49.2533 17.9467 50.4133 18.32 51.88L17.92 52.56V49.24C17.92 48.5733 18.0933 48.0667 18.44 47.72C18.8133 47.3733 19.3067 47.2 19.92 47.2C20.56 47.2 21.0533 47.3733 21.4 47.72C21.7467 48.0667 21.92 48.5733 21.92 49.24V65.36C21.92 68.4 21.1333 70.6933 19.56 72.24C17.9867 73.7867 15.6933 74.56 12.68 74.56ZM12.36 63.36C13.5333 63.36 14.5333 63.0933 15.36 62.56C16.1867 62.0267 16.8267 61.2667 17.28 60.28C17.7333 59.2933 17.96 58.1333 17.96 56.8C17.96 54.8 17.4533 53.2133 16.44 52.04C15.4533 50.8667 14.0933 50.28 12.36 50.28C11.2133 50.28 10.2267 50.5467 9.4 51.08C8.57333 51.6133 7.92 52.3733 7.44 53.36C6.98667 54.32 6.76 55.4667 6.76 56.8C6.76 58.8267 7.26667 60.4267 8.28 61.6C9.29333 62.7733 10.6533 63.36 12.36 63.36ZM36.75 67.36C34.6167 67.36 32.7767 66.96 31.23 66.16C29.71 65.3333 28.5233 64.1733 27.67 62.68C26.8433 61.16 26.43 59.36 26.43 57.28C26.43 55.2533 26.8433 53.48 27.67 51.96C28.4967 50.44 29.63 49.2533 31.07 48.4C32.51 47.5467 34.15 47.12 35.99 47.12C37.35 47.12 38.5633 47.3467 39.63 47.8C40.6967 48.2267 41.6033 48.8667 42.35 49.72C43.1233 50.5467 43.6967 51.56 44.07 52.76C44.47 53.96 44.67 55.3067 44.67 56.8C44.67 57.2533 44.5367 57.6 44.27 57.84C44.0033 58.0533 43.6033 58.16 43.07 58.16H29.63V55.68H41.95L41.27 56.24C41.27 54.9067 41.07 53.7733 40.67 52.84C40.2967 51.9067 39.7233 51.2 38.95 50.72C38.2033 50.2133 37.27 49.96 36.15 49.96C34.8967 49.96 33.83 50.2533 32.95 50.84C32.0967 51.4267 31.4433 52.24 30.99 53.28C30.5367 54.32 30.31 55.5333 30.31 56.92V57.16C30.31 59.5067 30.8567 61.28 31.95 62.48C33.07 63.6533 34.6833 64.24 36.79 64.24C37.59 64.24 38.43 64.1333 39.31 63.92C40.2167 63.7067 41.07 63.3467 41.87 62.84C42.3233 62.5733 42.7233 62.4533 43.07 62.48C43.4433 62.5067 43.7367 62.6267 43.95 62.84C44.19 63.0533 44.3367 63.32 44.39 63.64C44.4433 63.96 44.39 64.2933 44.23 64.64C44.07 64.96 43.79 65.2533 43.39 65.52C42.4833 66.1333 41.43 66.6 40.23 66.92C39.03 67.2133 37.87 67.36 36.75 67.36ZM51.1144 67.28C50.4477 67.28 49.941 67.1067 49.5944 66.76C49.2477 66.3867 49.0744 65.88 49.0744 65.24V49.24C49.0744 48.5733 49.2477 48.0667 49.5944 47.72C49.941 47.3733 50.421 47.2 51.0344 47.2C51.6744 47.2 52.1544 47.3733 52.4744 47.72C52.821 48.0667 52.9944 48.5733 52.9944 49.24V52.16H52.5944C53.021 50.56 53.8077 49.3467 54.9544 48.52C56.101 47.6933 57.5677 47.2133 59.3544 47.08C59.8344 47.0533 60.2077 47.1733 60.4744 47.44C60.7677 47.7067 60.9277 48.12 60.9544 48.68C61.0077 49.24 60.8877 49.6933 60.5944 50.04C60.301 50.36 59.8477 50.5467 59.2344 50.6L58.4744 50.68C56.741 50.84 55.421 51.3867 54.5144 52.32C53.6077 53.2533 53.1544 54.5333 53.1544 56.16V65.24C53.1544 65.88 52.981 66.3867 52.6344 66.76C52.3144 67.1067 51.8077 67.28 51.1144 67.28ZM72.8828 67.36C70.7495 67.36 68.9095 66.96 67.3628 66.16C65.8428 65.3333 64.6561 64.1733 63.8028 62.68C62.9761 61.16 62.5628 59.36 62.5628 57.28C62.5628 55.2533 62.9761 53.48 63.8028 51.96C64.6295 50.44 65.7628 49.2533 67.2028 48.4C68.6428 47.5467 70.2828 47.12 72.1228 47.12C73.4828 47.12 74.6961 47.3467 75.7628 47.8C76.8295 48.2267 77.7361 48.8667 78.4828 49.72C79.2561 50.5467 79.8295 51.56 80.2028 52.76C80.6028 53.96 80.8028 55.3067 80.8028 56.8C80.8028 57.2533 80.6695 57.6 80.4028 57.84C80.1361 58.0533 79.7361 58.16 79.2028 58.16H65.7628V55.68H78.0828L77.4028 56.24C77.4028 54.9067 77.2028 53.7733 76.8028 52.84C76.4295 51.9067 75.8561 51.2 75.0828 50.72C74.3361 50.2133 73.4028 49.96 72.2828 49.96C71.0295 49.96 69.9628 50.2533 69.0828 50.84C68.2295 51.4267 67.5761 52.24 67.1228 53.28C66.6695 54.32 66.4428 55.5333 66.4428 56.92V57.16C66.4428 59.5067 66.9895 61.28 68.0828 62.48C69.2028 63.6533 70.8161 64.24 72.9228 64.24C73.7228 64.24 74.5628 64.1333 75.4428 63.92C76.3495 63.7067 77.2028 63.3467 78.0028 62.84C78.4561 62.5733 78.8561 62.4533 79.2028 62.48C79.5761 62.5067 79.8695 62.6267 80.0828 62.84C80.3228 63.0533 80.4695 63.32 80.5228 63.64C80.5761 63.96 80.5228 64.2933 80.3628 64.64C80.2028 64.96 79.9228 65.2533 79.5228 65.52C78.6161 66.1333 77.5628 66.6 76.3628 66.92C75.1628 67.2133 74.0028 67.36 72.8828 67.36ZM87.2072 67.28C86.5672 67.28 86.0739 67.1067 85.7272 66.76C85.3805 66.3867 85.2072 65.88 85.2072 65.24V49.24C85.2072 48.5733 85.3805 48.0667 85.7272 47.72C86.0739 47.3733 86.5539 47.2 87.1672 47.2C87.8072 47.2 88.2872 47.3733 88.6072 47.72C88.9539 48.0667 89.1272 48.5733 89.1272 49.24V52.36L88.6872 51.64C89.2739 50.1467 90.1939 49.0267 91.4472 48.28C92.7005 47.5067 94.1405 47.12 95.7672 47.12C97.3139 47.12 98.5939 47.4133 99.6072 48C100.647 48.56 101.421 49.4267 101.927 50.6C102.434 51.7467 102.687 53.2 102.687 54.96V65.24C102.687 65.88 102.514 66.3867 102.167 66.76C101.821 67.1067 101.327 67.28 100.687 67.28C100.021 67.28 99.5139 67.1067 99.1672 66.76C98.8205 66.3867 98.6472 65.88 98.6472 65.24V55.2C98.6472 53.52 98.3139 52.2933 97.6472 51.52C97.0072 50.7467 95.9939 50.36 94.6072 50.36C92.9805 50.36 91.6739 50.8667 90.6872 51.88C89.7272 52.8933 89.2472 54.2533 89.2472 55.96V65.24C89.2472 66.6 88.5672 67.28 87.2072 67.28ZM116.854 67.36C114.854 67.36 113.121 66.9467 111.654 66.12C110.214 65.2667 109.094 64.08 108.294 62.56C107.494 61.0133 107.094 59.2 107.094 57.12C107.094 55.5733 107.321 54.1867 107.774 52.96C108.227 51.7067 108.867 50.6533 109.694 49.8C110.547 48.9467 111.574 48.2933 112.774 47.84C114.001 47.36 115.361 47.12 116.854 47.12C117.787 47.12 118.761 47.2667 119.774 47.56C120.814 47.8267 121.774 48.28 122.654 48.92C123.001 49.1333 123.214 49.4 123.294 49.72C123.401 50.0133 123.414 50.32 123.334 50.64C123.281 50.96 123.134 51.24 122.894 51.48C122.681 51.6933 122.414 51.8267 122.094 51.88C121.774 51.9067 121.427 51.8133 121.054 51.6C120.414 51.1467 119.761 50.8267 119.094 50.64C118.427 50.4267 117.787 50.32 117.174 50.32C116.214 50.32 115.361 50.48 114.614 50.8C113.894 51.0933 113.281 51.5333 112.774 52.12C112.267 52.68 111.881 53.3867 111.614 54.24C111.374 55.0933 111.254 56.0667 111.254 57.16C111.254 59.3467 111.761 61.0667 112.774 62.32C113.814 63.5467 115.281 64.16 117.174 64.16C117.787 64.16 118.427 64.0667 119.094 63.88C119.761 63.6933 120.414 63.3733 121.054 62.92C121.427 62.7067 121.774 62.6267 122.094 62.68C122.414 62.7333 122.667 62.88 122.854 63.12C123.067 63.3333 123.201 63.6 123.254 63.92C123.334 64.2133 123.321 64.52 123.214 64.84C123.107 65.16 122.881 65.4267 122.534 65.64C121.681 66.2533 120.747 66.6933 119.734 66.96C118.747 67.2267 117.787 67.36 116.854 67.36ZM128.926 67.24C128.286 67.24 127.793 67.0533 127.446 66.68C127.099 66.28 126.926 65.7333 126.926 65.04V49.44C126.926 48.7467 127.099 48.2133 127.446 47.84C127.793 47.4667 128.286 47.28 128.926 47.28C129.566 47.28 130.059 47.4667 130.406 47.84C130.779 48.2133 130.966 48.7467 130.966 49.44V65.04C130.966 65.7333 130.793 66.28 130.446 66.68C130.099 67.0533 129.593 67.24 128.926 67.24ZM128.926 43.12C128.126 43.12 127.499 42.92 127.046 42.52C126.619 42.12 126.406 41.56 126.406 40.84C126.406 40.0933 126.619 39.5333 127.046 39.16C127.499 38.76 128.126 38.56 128.926 38.56C129.726 38.56 130.339 38.76 130.766 39.16C131.219 39.5333 131.446 40.0933 131.446 40.84C131.446 41.56 131.219 42.12 130.766 42.52C130.339 42.92 129.726 43.12 128.926 43.12ZM142.893 67.36C141.533 67.36 140.306 67.0933 139.213 66.56C138.146 66.0267 137.306 65.3067 136.693 64.4C136.079 63.4933 135.773 62.4667 135.773 61.32C135.773 59.88 136.133 58.7467 136.853 57.92C137.599 57.0667 138.813 56.4667 140.493 56.12C142.199 55.7467 144.493 55.56 147.373 55.56H149.253V58.04H147.413C145.493 58.04 143.973 58.1333 142.853 58.32C141.733 58.5067 140.933 58.8267 140.453 59.28C139.999 59.7067 139.773 60.3067 139.773 61.08C139.773 62.0933 140.119 62.92 140.813 63.56C141.506 64.1733 142.466 64.48 143.693 64.48C144.679 64.48 145.546 64.2533 146.293 63.8C147.039 63.32 147.626 62.68 148.053 61.88C148.506 61.08 148.733 60.16 148.733 59.12V54.52C148.733 53 148.413 51.9067 147.773 51.24C147.133 50.5733 146.079 50.24 144.613 50.24C143.759 50.24 142.866 50.3467 141.933 50.56C141.026 50.7733 140.079 51.1333 139.092 51.64C138.639 51.8533 138.253 51.92 137.933 51.84C137.613 51.76 137.359 51.5867 137.173 51.32C136.986 51.0267 136.879 50.72 136.853 50.4C136.853 50.0533 136.933 49.72 137.093 49.4C137.279 49.08 137.586 48.84 138.013 48.68C139.186 48.12 140.346 47.72 141.493 47.48C142.639 47.24 143.719 47.12 144.733 47.12C146.519 47.12 147.986 47.4 149.133 47.96C150.306 48.52 151.173 49.3733 151.733 50.52C152.293 51.6667 152.573 53.1467 152.573 54.96V65.24C152.573 65.88 152.413 66.3867 152.093 66.76C151.773 67.1067 151.306 67.28 150.693 67.28C150.106 67.28 149.639 67.1067 149.293 66.76C148.946 66.3867 148.773 65.88 148.773 65.24V62.64H149.133C148.919 63.6267 148.519 64.48 147.933 65.2C147.373 65.8933 146.666 66.4267 145.813 66.8C144.959 67.1733 143.986 67.36 142.893 67.36ZM160.217 67.28C159.577 67.28 159.084 67.1067 158.737 66.76C158.39 66.3867 158.217 65.88 158.217 65.24V49.24C158.217 48.5733 158.39 48.0667 158.737 47.72C159.084 47.3733 159.564 47.2 160.177 47.2C160.817 47.2 161.297 47.3733 161.617 47.72C161.964 48.0667 162.137 48.5733 162.137 49.24V52.52L161.697 51.64C162.23 50.2267 163.057 49.12 164.177 48.32C165.297 47.52 166.644 47.12 168.217 47.12C169.844 47.12 171.164 47.5067 172.177 48.28C173.19 49.0533 173.884 50.24 174.257 51.84H173.697C174.204 50.3733 175.07 49.2267 176.297 48.4C177.524 47.5467 178.95 47.12 180.577 47.12C182.07 47.12 183.297 47.4133 184.257 48C185.217 48.56 185.937 49.4267 186.417 50.6C186.897 51.7467 187.137 53.2 187.137 54.96V65.24C187.137 65.88 186.95 66.3867 186.577 66.76C186.23 67.1067 185.737 67.28 185.097 67.28C184.457 67.28 183.964 67.1067 183.617 66.76C183.27 66.3867 183.097 65.88 183.097 65.24V55.16C183.097 53.5067 182.804 52.2933 182.217 51.52C181.657 50.7467 180.724 50.36 179.417 50.36C177.95 50.36 176.79 50.8667 175.937 51.88C175.084 52.8933 174.657 54.2933 174.657 56.08V65.24C174.657 65.88 174.484 66.3867 174.137 66.76C173.79 67.1067 173.297 67.28 172.657 67.28C172.017 67.28 171.51 67.1067 171.137 66.76C170.79 66.3867 170.617 65.88 170.617 65.24V55.16C170.617 53.5067 170.337 52.2933 169.777 51.52C169.217 50.7467 168.284 50.36 166.977 50.36C165.51 50.36 164.35 50.8667 163.497 51.88C162.67 52.8933 162.257 54.2933 162.257 56.08V65.24C162.257 66.6 161.577 67.28 160.217 67.28ZM201.945 67.36C199.812 67.36 197.972 66.96 196.425 66.16C194.905 65.3333 193.719 64.1733 192.865 62.68C192.039 61.16 191.625 59.36 191.625 57.28C191.625 55.2533 192.039 53.48 192.865 51.96C193.692 50.44 194.825 49.2533 196.265 48.4C197.705 47.5467 199.345 47.12 201.185 47.12C202.545 47.12 203.759 47.3467 204.825 47.8C205.892 48.2267 206.799 48.8667 207.545 49.72C208.319 50.5467 208.892 51.56 209.265 52.76C209.665 53.96 209.865 55.3067 209.865 56.8C209.865 57.2533 209.732 57.6 209.465 57.84C209.199 58.0533 208.799 58.16 208.265 58.16H194.825V55.68H207.145L206.465 56.24C206.465 54.9067 206.265 53.7733 205.865 52.84C205.492 51.9067 204.919 51.2 204.145 50.72C203.399 50.2133 202.465 49.96 201.345 49.96C200.092 49.96 199.025 50.2533 198.145 50.84C197.292 51.4267 196.639 52.24 196.185 53.28C195.732 54.32 195.505 55.5333 195.505 56.92V57.16C195.505 59.5067 196.052 61.28 197.145 62.48C198.265 63.6533 199.879 64.24 201.985 64.24C202.785 64.24 203.625 64.1333 204.505 63.92C205.412 63.7067 206.265 63.3467 207.065 62.84C207.519 62.5733 207.919 62.4533 208.265 62.48C208.639 62.5067 208.932 62.6267 209.145 62.84C209.385 63.0533 209.532 63.32 209.585 63.64C209.639 63.96 209.585 64.2933 209.425 64.64C209.265 64.96 208.985 65.2533 208.585 65.52C207.679 66.1333 206.625 66.6 205.425 66.92C204.225 67.2133 203.065 67.36 201.945 67.36ZM216.27 67.28C215.63 67.28 215.136 67.1067 214.79 66.76C214.443 66.3867 214.27 65.88 214.27 65.24V49.24C214.27 48.5733 214.443 48.0667 214.79 47.72C215.136 47.3733 215.616 47.2 216.23 47.2C216.87 47.2 217.35 47.3733 217.67 47.72C218.016 48.0667 218.19 48.5733 218.19 49.24V52.36L217.75 51.64C218.336 50.1467 219.256 49.0267 220.51 48.28C221.763 47.5067 223.203 47.12 224.83 47.12C226.376 47.12 227.656 47.4133 228.67 48C229.71 48.56 230.483 49.4267 230.99 50.6C231.496 51.7467 231.75 53.2 231.75 54.96V65.24C231.75 65.88 231.576 66.3867 231.23 66.76C230.883 67.1067 230.39 67.28 229.75 67.28C229.083 67.28 228.576 67.1067 228.23 66.76C227.883 66.3867 227.71 65.88 227.71 65.24V55.2C227.71 53.52 227.376 52.2933 226.71 51.52C226.07 50.7467 225.056 50.36 223.67 50.36C222.043 50.36 220.736 50.8667 219.75 51.88C218.79 52.8933 218.31 54.2533 218.31 55.96V65.24C218.31 66.6 217.63 67.28 216.27 67.28ZM245.637 67.36C244.037 67.36 242.69 67.08 241.597 66.52C240.503 65.96 239.69 65.1333 239.157 64.04C238.623 62.9467 238.357 61.6133 238.357 60.04V50.6H235.957C235.423 50.6 235.01 50.4667 234.717 50.2C234.423 49.9067 234.277 49.52 234.277 49.04C234.277 48.5333 234.423 48.1467 234.717 47.88C235.01 47.6133 235.423 47.48 235.957 47.48H238.357V43.36C238.357 42.6933 238.53 42.1867 238.877 41.84C239.25 41.4933 239.757 41.32 240.397 41.32C241.037 41.32 241.53 41.4933 241.877 41.84C242.223 42.1867 242.397 42.6933 242.397 43.36V47.48H247.077C247.61 47.48 248.023 47.6133 248.317 47.88C248.61 48.1467 248.757 48.5333 248.757 49.04C248.757 49.52 248.61 49.9067 248.317 50.2C248.023 50.4667 247.61 50.6 247.077 50.6H242.397V59.72C242.397 61.1333 242.69 62.2 243.277 62.92C243.89 63.64 244.877 64 246.237 64C246.717 64 247.13 63.96 247.477 63.88C247.85 63.7733 248.157 63.7067 248.397 63.68C248.69 63.68 248.93 63.7867 249.117 64C249.303 64.1867 249.397 64.56 249.397 65.12C249.397 65.52 249.317 65.8933 249.157 66.24C249.023 66.5867 248.77 66.8133 248.397 66.92C248.077 67.0267 247.637 67.12 247.077 67.2C246.543 67.3067 246.063 67.36 245.637 67.36ZM260.211 67.36C258.237 67.36 256.531 66.9467 255.091 66.12C253.677 65.2933 252.571 64.12 251.771 62.6C250.971 61.08 250.571 59.2933 250.571 57.24C250.571 55.6667 250.797 54.2667 251.251 53.04C251.704 51.8133 252.344 50.76 253.171 49.88C254.024 48.9733 255.037 48.2933 256.211 47.84C257.411 47.36 258.744 47.12 260.211 47.12C262.157 47.12 263.837 47.5333 265.251 48.36C266.691 49.1867 267.811 50.36 268.611 51.88C269.411 53.3733 269.811 55.16 269.811 57.24C269.811 58.7867 269.584 60.1867 269.131 61.44C268.677 62.6933 268.024 63.76 267.171 64.64C266.344 65.52 265.331 66.2 264.131 66.68C262.957 67.1333 261.651 67.36 260.211 67.36ZM260.211 64.24C261.304 64.24 262.264 63.9733 263.091 63.44C263.917 62.9067 264.557 62.12 265.011 61.08C265.491 60.04 265.731 58.76 265.731 57.24C265.731 54.9467 265.224 53.2133 264.211 52.04C263.197 50.8667 261.864 50.28 260.211 50.28C259.091 50.28 258.117 50.5467 257.291 51.08C256.464 51.5867 255.811 52.36 255.331 53.4C254.877 54.44 254.651 55.72 254.651 57.24C254.651 59.5067 255.157 61.24 256.171 62.44C257.184 63.64 258.531 64.24 260.211 64.24ZM294.055 67.36C291.921 67.36 290.081 66.96 288.535 66.16C287.015 65.3333 285.828 64.1733 284.975 62.68C284.148 61.16 283.735 59.36 283.735 57.28C283.735 55.2533 284.148 53.48 284.975 51.96C285.801 50.44 286.935 49.2533 288.375 48.4C289.815 47.5467 291.455 47.12 293.295 47.12C294.655 47.12 295.868 47.3467 296.935 47.8C298.001 48.2267 298.908 48.8667 299.655 49.72C300.428 50.5467 301.001 51.56 301.375 52.76C301.775 53.96 301.975 55.3067 301.975 56.8C301.975 57.2533 301.841 57.6 301.575 57.84C301.308 58.0533 300.908 58.16 300.375 58.16H286.935V55.68H299.255L298.575 56.24C298.575 54.9067 298.375 53.7733 297.975 52.84C297.601 51.9067 297.028 51.2 296.255 50.72C295.508 50.2133 294.575 49.96 293.455 49.96C292.201 49.96 291.135 50.2533 290.255 50.84C289.401 51.4267 288.748 52.24 288.295 53.28C287.841 54.32 287.615 55.5333 287.615 56.92V57.16C287.615 59.5067 288.161 61.28 289.255 62.48C290.375 63.6533 291.988 64.24 294.095 64.24C294.895 64.24 295.735 64.1333 296.615 63.92C297.521 63.7067 298.375 63.3467 299.175 62.84C299.628 62.5733 300.028 62.4533 300.375 62.48C300.748 62.5067 301.041 62.6267 301.255 62.84C301.495 63.0533 301.641 63.32 301.695 63.64C301.748 63.96 301.695 64.2933 301.535 64.64C301.375 64.96 301.095 65.2533 300.695 65.52C299.788 66.1333 298.735 66.6 297.535 66.92C296.335 67.2133 295.175 67.36 294.055 67.36ZM312.659 67.36C310.579 67.36 309.006 66.76 307.939 65.56C306.899 64.3333 306.379 62.5733 306.379 60.28V40.56C306.379 39.8933 306.552 39.3867 306.899 39.04C307.246 38.6933 307.739 38.52 308.379 38.52C309.019 38.52 309.512 38.6933 309.859 39.04C310.232 39.3867 310.419 39.8933 310.419 40.56V60.04C310.419 61.3733 310.686 62.3733 311.219 63.04C311.779 63.68 312.579 64 313.619 64C313.859 64 314.072 64 314.259 64C314.446 63.9733 314.632 63.9467 314.819 63.92C315.139 63.8933 315.366 63.9867 315.499 64.2C315.632 64.3867 315.699 64.7867 315.699 65.4C315.699 65.96 315.579 66.4 315.339 66.72C315.099 67.0133 314.712 67.2 314.179 67.28C313.939 67.3067 313.686 67.32 313.419 67.32C313.152 67.3467 312.899 67.36 312.659 67.36ZM327.57 67.36C325.437 67.36 323.597 66.96 322.05 66.16C320.53 65.3333 319.344 64.1733 318.49 62.68C317.664 61.16 317.25 59.36 317.25 57.28C317.25 55.2533 317.664 53.48 318.49 51.96C319.317 50.44 320.45 49.2533 321.89 48.4C323.33 47.5467 324.97 47.12 326.81 47.12C328.17 47.12 329.384 47.3467 330.45 47.8C331.517 48.2267 332.424 48.8667 333.17 49.72C333.944 50.5467 334.517 51.56 334.89 52.76C335.29 53.96 335.49 55.3067 335.49 56.8C335.49 57.2533 335.357 57.6 335.09 57.84C334.824 58.0533 334.424 58.16 333.89 58.16H320.45V55.68H332.77L332.09 56.24C332.09 54.9067 331.89 53.7733 331.49 52.84C331.117 51.9067 330.544 51.2 329.77 50.72C329.024 50.2133 328.09 49.96 326.97 49.96C325.717 49.96 324.65 50.2533 323.77 50.84C322.917 51.4267 322.264 52.24 321.81 53.28C321.357 54.32 321.13 55.5333 321.13 56.92V57.16C321.13 59.5067 321.677 61.28 322.77 62.48C323.89 63.6533 325.504 64.24 327.61 64.24C328.41 64.24 329.25 64.1333 330.13 63.92C331.037 63.7067 331.89 63.3467 332.69 62.84C333.144 62.5733 333.544 62.4533 333.89 62.48C334.264 62.5067 334.557 62.6267 334.77 62.84C335.01 63.0533 335.157 63.32 335.21 63.64C335.264 63.96 335.21 64.2933 335.05 64.64C334.89 64.96 334.61 65.2533 334.21 65.52C333.304 66.1333 332.25 66.6 331.05 66.92C329.85 67.2133 328.69 67.36 327.57 67.36ZM348.176 67.36C346.576 67.36 345.229 67.08 344.136 66.52C343.042 65.96 342.229 65.1333 341.696 64.04C341.162 62.9467 340.896 61.6133 340.896 60.04V50.6H338.496C337.962 50.6 337.549 50.4667 337.256 50.2C336.962 49.9067 336.816 49.52 336.816 49.04C336.816 48.5333 336.962 48.1467 337.256 47.88C337.549 47.6133 337.962 47.48 338.496 47.48H340.896V43.36C340.896 42.6933 341.069 42.1867 341.416 41.84C341.789 41.4933 342.296 41.32 342.936 41.32C343.576 41.32 344.069 41.4933 344.416 41.84C344.762 42.1867 344.936 42.6933 344.936 43.36V47.48H349.616C350.149 47.48 350.562 47.6133 350.856 47.88C351.149 48.1467 351.296 48.5333 351.296 49.04C351.296 49.52 351.149 49.9067 350.856 50.2C350.562 50.4667 350.149 50.6 349.616 50.6H344.936V59.72C344.936 61.1333 345.229 62.2 345.816 62.92C346.429 63.64 347.416 64 348.776 64C349.256 64 349.669 63.96 350.016 63.88C350.389 63.7733 350.696 63.7067 350.936 63.68C351.229 63.68 351.469 63.7867 351.656 64C351.842 64.1867 351.936 64.56 351.936 65.12C351.936 65.52 351.856 65.8933 351.696 66.24C351.562 66.5867 351.309 66.8133 350.936 66.92C350.616 67.0267 350.176 67.12 349.616 67.2C349.082 67.3067 348.602 67.36 348.176 67.36ZM356.505 67.28C355.838 67.28 355.332 67.1067 354.985 66.76C354.638 66.3867 354.465 65.88 354.465 65.24V49.24C354.465 48.5733 354.638 48.0667 354.985 47.72C355.332 47.3733 355.812 47.2 356.425 47.2C357.065 47.2 357.545 47.3733 357.865 47.72C358.212 48.0667 358.385 48.5733 358.385 49.24V52.16H357.985C358.412 50.56 359.198 49.3467 360.345 48.52C361.492 47.6933 362.958 47.2133 364.745 47.08C365.225 47.0533 365.598 47.1733 365.865 47.44C366.158 47.7067 366.318 48.12 366.345 48.68C366.398 49.24 366.278 49.6933 365.985 50.04C365.692 50.36 365.238 50.5467 364.625 50.6L363.865 50.68C362.132 50.84 360.812 51.3867 359.905 52.32C358.998 53.2533 358.545 54.5333 358.545 56.16V65.24C358.545 65.88 358.372 66.3867 358.025 66.76C357.705 67.1067 357.198 67.28 356.505 67.28ZM377.593 67.36C375.62 67.36 373.913 66.9467 372.473 66.12C371.06 65.2933 369.953 64.12 369.153 62.6C368.353 61.08 367.953 59.2933 367.953 57.24C367.953 55.6667 368.18 54.2667 368.633 53.04C369.087 51.8133 369.727 50.76 370.553 49.88C371.407 48.9733 372.42 48.2933 373.593 47.84C374.793 47.36 376.127 47.12 377.593 47.12C379.54 47.12 381.22 47.5333 382.633 48.36C384.073 49.1867 385.193 50.36 385.993 51.88C386.793 53.3733 387.193 55.16 387.193 57.24C387.193 58.7867 386.967 60.1867 386.513 61.44C386.06 62.6933 385.407 63.76 384.553 64.64C383.727 65.52 382.713 66.2 381.513 66.68C380.34 67.1333 379.033 67.36 377.593 67.36ZM377.593 64.24C378.687 64.24 379.647 63.9733 380.473 63.44C381.3 62.9067 381.94 62.12 382.393 61.08C382.873 60.04 383.113 58.76 383.113 57.24C383.113 54.9467 382.607 53.2133 381.593 52.04C380.58 50.8667 379.247 50.28 377.593 50.28C376.473 50.28 375.5 50.5467 374.673 51.08C373.847 51.5867 373.193 52.36 372.713 53.4C372.26 54.44 372.033 55.72 372.033 57.24C372.033 59.5067 372.54 61.24 373.553 62.44C374.567 63.64 375.913 64.24 377.593 64.24ZM383.073 43.44C383.26 43.8133 383.3 44.1467 383.193 44.44C383.087 44.7333 382.9 44.96 382.633 45.12C382.367 45.2533 382.073 45.2933 381.753 45.24C381.46 45.1867 381.207 45 380.993 44.68L377.593 39.28L374.193 44.68C373.98 45 373.713 45.1867 373.393 45.24C373.1 45.2933 372.82 45.2533 372.553 45.12C372.287 44.96 372.1 44.7333 371.993 44.44C371.887 44.1467 371.927 43.8133 372.113 43.44L375.273 37.72C375.54 37.2133 375.86 36.84 376.233 36.6C376.633 36.36 377.087 36.24 377.593 36.24C378.1 36.24 378.553 36.36 378.953 36.6C379.353 36.84 379.687 37.2133 379.953 37.72L383.073 43.44ZM393.731 67.28C393.091 67.28 392.597 67.1067 392.251 66.76C391.904 66.3867 391.731 65.88 391.731 65.24V49.24C391.731 48.5733 391.904 48.0667 392.251 47.72C392.597 47.3733 393.077 47.2 393.691 47.2C394.331 47.2 394.811 47.3733 395.131 47.72C395.477 48.0667 395.651 48.5733 395.651 49.24V52.36L395.211 51.64C395.797 50.1467 396.717 49.0267 397.971 48.28C399.224 47.5067 400.664 47.12 402.291 47.12C403.837 47.12 405.117 47.4133 406.131 48C407.171 48.56 407.944 49.4267 408.451 50.6C408.957 51.7467 409.211 53.2 409.211 54.96V65.24C409.211 65.88 409.037 66.3867 408.691 66.76C408.344 67.1067 407.851 67.28 407.211 67.28C406.544 67.28 406.037 67.1067 405.691 66.76C405.344 66.3867 405.171 65.88 405.171 65.24V55.2C405.171 53.52 404.837 52.2933 404.171 51.52C403.531 50.7467 402.517 50.36 401.131 50.36C399.504 50.36 398.197 50.8667 397.211 51.88C396.251 52.8933 395.771 54.2533 395.771 55.96V65.24C395.771 66.6 395.091 67.28 393.731 67.28ZM416.778 67.24C416.138 67.24 415.644 67.0533 415.298 66.68C414.951 66.28 414.778 65.7333 414.778 65.04V49.44C414.778 48.7467 414.951 48.2133 415.298 47.84C415.644 47.4667 416.138 47.28 416.778 47.28C417.418 47.28 417.911 47.4667 418.258 47.84C418.631 48.2133 418.818 48.7467 418.818 49.44V65.04C418.818 65.7333 418.644 66.28 418.298 66.68C417.951 67.0533 417.444 67.24 416.778 67.24ZM416.778 43.12C415.978 43.12 415.351 42.92 414.898 42.52C414.471 42.12 414.258 41.56 414.258 40.84C414.258 40.0933 414.471 39.5333 414.898 39.16C415.351 38.76 415.978 38.56 416.778 38.56C417.578 38.56 418.191 38.76 418.618 39.16C419.071 39.5333 419.298 40.0933 419.298 40.84C419.298 41.56 419.071 42.12 418.618 42.52C418.191 42.92 417.578 43.12 416.778 43.12ZM433.104 67.36C431.104 67.36 429.371 66.9467 427.904 66.12C426.464 65.2667 425.344 64.08 424.544 62.56C423.744 61.0133 423.344 59.2 423.344 57.12C423.344 55.5733 423.571 54.1867 424.024 52.96C424.477 51.7067 425.117 50.6533 425.944 49.8C426.797 48.9467 427.824 48.2933 429.024 47.84C430.251 47.36 431.611 47.12 433.104 47.12C434.037 47.12 435.011 47.2667 436.024 47.56C437.064 47.8267 438.024 48.28 438.904 48.92C439.251 49.1333 439.464 49.4 439.544 49.72C439.651 50.0133 439.664 50.32 439.584 50.64C439.531 50.96 439.384 51.24 439.144 51.48C438.931 51.6933 438.664 51.8267 438.344 51.88C438.024 51.9067 437.677 51.8133 437.304 51.6C436.664 51.1467 436.011 50.8267 435.344 50.64C434.677 50.4267 434.037 50.32 433.424 50.32C432.464 50.32 431.611 50.48 430.864 50.8C430.144 51.0933 429.531 51.5333 429.024 52.12C428.517 52.68 428.131 53.3867 427.864 54.24C427.624 55.0933 427.504 56.0667 427.504 57.16C427.504 59.3467 428.011 61.0667 429.024 62.32C430.064 63.5467 431.531 64.16 433.424 64.16C434.037 64.16 434.677 64.0667 435.344 63.88C436.011 63.6933 436.664 63.3733 437.304 62.92C437.677 62.7067 438.024 62.6267 438.344 62.68C438.664 62.7333 438.917 62.88 439.104 63.12C439.317 63.3333 439.451 63.6 439.504 63.92C439.584 64.2133 439.571 64.52 439.464 64.84C439.357 65.16 439.131 65.4267 438.784 65.64C437.931 66.2533 436.997 66.6933 435.984 66.96C434.997 67.2267 434.037 67.36 433.104 67.36ZM451.265 67.36C449.292 67.36 447.585 66.9467 446.145 66.12C444.732 65.2933 443.625 64.12 442.825 62.6C442.025 61.08 441.625 59.2933 441.625 57.24C441.625 55.6667 441.852 54.2667 442.305 53.04C442.759 51.8133 443.399 50.76 444.225 49.88C445.079 48.9733 446.092 48.2933 447.265 47.84C448.465 47.36 449.799 47.12 451.265 47.12C453.212 47.12 454.892 47.5333 456.305 48.36C457.745 49.1867 458.865 50.36 459.665 51.88C460.465 53.3733 460.865 55.16 460.865 57.24C460.865 58.7867 460.639 60.1867 460.185 61.44C459.732 62.6933 459.079 63.76 458.225 64.64C457.399 65.52 456.385 66.2 455.185 66.68C454.012 67.1333 452.705 67.36 451.265 67.36ZM451.265 64.24C452.359 64.24 453.319 63.9733 454.145 63.44C454.972 62.9067 455.612 62.12 456.065 61.08C456.545 60.04 456.785 58.76 456.785 57.24C456.785 54.9467 456.279 53.2133 455.265 52.04C454.252 50.8667 452.919 50.28 451.265 50.28C450.145 50.28 449.172 50.5467 448.345 51.08C447.519 51.5867 446.865 52.36 446.385 53.4C445.932 54.44 445.705 55.72 445.705 57.24C445.705 59.5067 446.212 61.24 447.225 62.44C448.239 63.64 449.585 64.24 451.265 64.24ZM483.389 67.36C481.683 67.36 480.176 66.96 478.869 66.16C477.589 65.3333 476.589 64.16 475.869 62.64C475.149 61.0933 474.789 59.2933 474.789 57.24C474.789 55.1333 475.149 53.3333 475.869 51.84C476.589 50.3467 477.589 49.1867 478.869 48.36C480.176 47.5333 481.683 47.12 483.389 47.12C485.096 47.12 486.563 47.5467 487.789 48.4C489.043 49.2267 489.883 50.3467 490.309 51.76H489.869V40.56C489.869 39.8933 490.043 39.3867 490.389 39.04C490.736 38.6933 491.229 38.52 491.869 38.52C492.509 38.52 493.003 38.6933 493.349 39.04C493.723 39.3867 493.909 39.8933 493.909 40.56V65.24C493.909 65.88 493.736 66.3867 493.389 66.76C493.043 67.1067 492.549 67.28 491.909 67.28C491.269 67.28 490.776 67.1067 490.429 66.76C490.083 66.3867 489.909 65.88 489.909 65.24V61.72L490.349 62.6C489.923 64.04 489.083 65.2 487.829 66.08C486.603 66.9333 485.123 67.36 483.389 67.36ZM484.429 64.24C485.523 64.24 486.483 63.9733 487.309 63.44C488.136 62.9067 488.776 62.12 489.229 61.08C489.709 60.04 489.949 58.76 489.949 57.24C489.949 54.9467 489.443 53.2133 488.429 52.04C487.416 50.8667 486.083 50.28 484.429 50.28C483.309 50.28 482.336 50.5467 481.509 51.08C480.683 51.5867 480.029 52.36 479.549 53.4C479.096 54.44 478.869 55.72 478.869 57.24C478.869 59.5067 479.376 61.24 480.389 62.44C481.403 63.64 482.749 64.24 484.429 64.24ZM508.742 67.36C506.609 67.36 504.769 66.96 503.222 66.16C501.702 65.3333 500.516 64.1733 499.662 62.68C498.836 61.16 498.422 59.36 498.422 57.28C498.422 55.2533 498.836 53.48 499.662 51.96C500.489 50.44 501.622 49.2533 503.062 48.4C504.502 47.5467 506.142 47.12 507.982 47.12C509.342 47.12 510.556 47.3467 511.622 47.8C512.689 48.2267 513.596 48.8667 514.342 49.72C515.116 50.5467 515.689 51.56 516.062 52.76C516.462 53.96 516.662 55.3067 516.662 56.8C516.662 57.2533 516.529 57.6 516.262 57.84C515.996 58.0533 515.596 58.16 515.062 58.16H501.622V55.68H513.942L513.262 56.24C513.262 54.9067 513.062 53.7733 512.662 52.84C512.289 51.9067 511.716 51.2 510.942 50.72C510.196 50.2133 509.262 49.96 508.142 49.96C506.889 49.96 505.822 50.2533 504.942 50.84C504.089 51.4267 503.436 52.24 502.982 53.28C502.529 54.32 502.302 55.5333 502.302 56.92V57.16C502.302 59.5067 502.849 61.28 503.942 62.48C505.062 63.6533 506.676 64.24 508.782 64.24C509.582 64.24 510.422 64.1333 511.302 63.92C512.209 63.7067 513.062 63.3467 513.862 62.84C514.316 62.5733 514.716 62.4533 515.062 62.48C515.436 62.5067 515.729 62.6267 515.942 62.84C516.182 63.0533 516.329 63.32 516.382 63.64C516.436 63.96 516.382 64.2933 516.222 64.64C516.062 64.96 515.782 65.2533 515.382 65.52C514.476 66.1333 513.422 66.6 512.222 66.92C511.022 67.2133 509.862 67.36 508.742 67.36ZM12.16 105.36C10.56 105.36 9.21333 105.08 8.12 104.52C7.02667 103.96 6.21333 103.133 5.68 102.04C5.14667 100.947 4.88 99.6133 4.88 98.04V88.6H2.48C1.94667 88.6 1.53333 88.4667 1.24 88.2C0.946667 87.9067 0.8 87.52 0.8 87.04C0.8 86.5333 0.946667 86.1467 1.24 85.88C1.53333 85.6133 1.94667 85.48 2.48 85.48H4.88V81.36C4.88 80.6933 5.05333 80.1867 5.4 79.84C5.77333 79.4933 6.28 79.32 6.92 79.32C7.56 79.32 8.05333 79.4933 8.4 79.84C8.74667 80.1867 8.92 80.6933 8.92 81.36V85.48H13.6C14.1333 85.48 14.5467 85.6133 14.84 85.88C15.1333 86.1467 15.28 86.5333 15.28 87.04C15.28 87.52 15.1333 87.9067 14.84 88.2C14.5467 88.4667 14.1333 88.6 13.6 88.6H8.92V97.72C8.92 99.1333 9.21333 100.2 9.8 100.92C10.4133 101.64 11.4 102 12.76 102C13.24 102 13.6533 101.96 14 101.88C14.3733 101.773 14.68 101.707 14.92 101.68C15.2133 101.68 15.4533 101.787 15.64 102C15.8267 102.187 15.92 102.56 15.92 103.12C15.92 103.52 15.84 103.893 15.68 104.24C15.5467 104.587 15.2933 104.813 14.92 104.92C14.6 105.027 14.16 105.12 13.6 105.2C13.0667 105.307 12.5867 105.36 12.16 105.36ZM27.4141 105.36C25.2807 105.36 23.4407 104.96 21.8941 104.16C20.3741 103.333 19.1874 102.173 18.3341 100.68C17.5074 99.16 17.0941 97.36 17.0941 95.28C17.0941 93.2533 17.5074 91.48 18.3341 89.96C19.1607 88.44 20.2941 87.2533 21.7341 86.4C23.1741 85.5467 24.8141 85.12 26.6541 85.12C28.0141 85.12 29.2274 85.3467 30.2941 85.8C31.3607 86.2267 32.2674 86.8667 33.0141 87.72C33.7874 88.5467 34.3607 89.56 34.7341 90.76C35.1341 91.96 35.3341 93.3067 35.3341 94.8C35.3341 95.2533 35.2007 95.6 34.9341 95.84C34.6674 96.0533 34.2674 96.16 33.7341 96.16H20.2941V93.68H32.6141L31.9341 94.24C31.9341 92.9067 31.7341 91.7733 31.3341 90.84C30.9607 89.9067 30.3874 89.2 29.6141 88.72C28.8674 88.2133 27.9341 87.96 26.8141 87.96C25.5607 87.96 24.4941 88.2533 23.6141 88.84C22.7607 89.4267 22.1074 90.24 21.6541 91.28C21.2007 92.32 20.9741 93.5333 20.9741 94.92V95.16C20.9741 97.5067 21.5207 99.28 22.6141 100.48C23.7341 101.653 25.3474 102.24 27.4541 102.24C28.2541 102.24 29.0941 102.133 29.9741 101.92C30.8807 101.707 31.7341 101.347 32.5341 100.84C32.9874 100.573 33.3874 100.453 33.7341 100.48C34.1074 100.507 34.4007 100.627 34.6141 100.84C34.8541 101.053 35.0007 101.32 35.0541 101.64C35.1074 101.96 35.0541 102.293 34.8941 102.64C34.7341 102.96 34.4541 103.253 34.0541 103.52C33.1474 104.133 32.0941 104.6 30.8941 104.92C29.6941 105.213 28.5341 105.36 27.4141 105.36ZM41.8184 105.28C41.1784 105.28 40.6851 105.107 40.3384 104.76C39.9918 104.387 39.8184 103.88 39.8184 103.24V87.24C39.8184 86.5733 39.9918 86.0667 40.3384 85.72C40.6851 85.3733 41.1651 85.2 41.7784 85.2C42.4184 85.2 42.8984 85.3733 43.2184 85.72C43.5651 86.0667 43.7384 86.5733 43.7384 87.24V90.52L43.2984 89.64C43.8318 88.2267 44.6584 87.12 45.7784 86.32C46.8984 85.52 48.2451 85.12 49.8184 85.12C51.4451 85.12 52.7651 85.5067 53.7784 86.28C54.7918 87.0533 55.4851 88.24 55.8584 89.84H55.2984C55.8051 88.3733 56.6718 87.2267 57.8984 86.4C59.1251 85.5467 60.5518 85.12 62.1784 85.12C63.6718 85.12 64.8984 85.4133 65.8584 86C66.8184 86.56 67.5384 87.4267 68.0184 88.6C68.4984 89.7467 68.7384 91.2 68.7384 92.96V103.24C68.7384 103.88 68.5518 104.387 68.1784 104.76C67.8318 105.107 67.3384 105.28 66.6984 105.28C66.0584 105.28 65.5651 105.107 65.2184 104.76C64.8718 104.387 64.6984 103.88 64.6984 103.24V93.16C64.6984 91.5067 64.4051 90.2933 63.8184 89.52C63.2584 88.7467 62.3251 88.36 61.0184 88.36C59.5518 88.36 58.3918 88.8667 57.5384 89.88C56.6851 90.8933 56.2584 92.2933 56.2584 94.08V103.24C56.2584 103.88 56.0851 104.387 55.7384 104.76C55.3918 105.107 54.8984 105.28 54.2584 105.28C53.6184 105.28 53.1118 105.107 52.7384 104.76C52.3918 104.387 52.2184 103.88 52.2184 103.24V93.16C52.2184 91.5067 51.9384 90.2933 51.3784 89.52C50.8184 88.7467 49.8851 88.36 48.5784 88.36C47.1118 88.36 45.9518 88.8667 45.0984 89.88C44.2718 90.8933 43.8584 92.2933 43.8584 94.08V103.24C43.8584 104.6 43.1784 105.28 41.8184 105.28ZM76.3869 112.48C75.7469 112.48 75.2535 112.307 74.9069 111.96C74.5602 111.613 74.3869 111.107 74.3869 110.44V87.24C74.3869 86.5733 74.5602 86.0667 74.9069 85.72C75.2535 85.3733 75.7335 85.2 76.3469 85.2C76.9869 85.2 77.4802 85.3733 77.8269 85.72C78.1735 86.0667 78.3469 86.5733 78.3469 87.24V90.72L77.9069 89.88C78.3335 88.44 79.1735 87.2933 80.4269 86.44C81.6802 85.56 83.1602 85.12 84.8669 85.12C86.6002 85.12 88.1069 85.5333 89.3869 86.36C90.6935 87.1867 91.6935 88.3467 92.3869 89.84C93.1069 91.3333 93.4669 93.1333 93.4669 95.24C93.4669 97.2933 93.1069 99.0933 92.3869 100.64C91.6935 102.16 90.7069 103.333 89.4269 104.16C88.1469 104.96 86.6269 105.36 84.8669 105.36C83.1869 105.36 81.7202 104.933 80.4669 104.08C79.2135 103.227 78.3735 102.093 77.9469 100.68H78.4269V110.44C78.4269 111.107 78.2402 111.613 77.8669 111.96C77.5202 112.307 77.0269 112.48 76.3869 112.48ZM83.8669 102.24C84.9869 102.24 85.9602 101.973 86.7869 101.44C87.6135 100.907 88.2535 100.12 88.7069 99.08C89.1602 98.04 89.3869 96.76 89.3869 95.24C89.3869 92.9467 88.8802 91.2133 87.8669 90.04C86.8802 88.8667 85.5469 88.28 83.8669 88.28C82.7735 88.28 81.8002 88.5467 80.9469 89.08C80.1202 89.5867 79.4802 90.36 79.0269 91.4C78.5735 92.44 78.3469 93.72 78.3469 95.24C78.3469 97.5067 78.8535 99.24 79.8669 100.44C80.8802 101.64 82.2135 102.24 83.8669 102.24ZM104.3 105.36C102.22 105.36 100.646 104.76 99.5797 103.56C98.5397 102.333 98.0197 100.573 98.0197 98.28V78.56C98.0197 77.8933 98.193 77.3867 98.5397 77.04C98.8864 76.6933 99.3797 76.52 100.02 76.52C100.66 76.52 101.153 76.6933 101.5 77.04C101.873 77.3867 102.06 77.8933 102.06 78.56V98.04C102.06 99.3733 102.326 100.373 102.86 101.04C103.42 101.68 104.22 102 105.26 102C105.5 102 105.713 102 105.9 102C106.086 101.973 106.273 101.947 106.46 101.92C106.78 101.893 107.006 101.987 107.14 102.2C107.273 102.387 107.34 102.787 107.34 103.4C107.34 103.96 107.22 104.4 106.98 104.72C106.74 105.013 106.353 105.2 105.82 105.28C105.58 105.307 105.326 105.32 105.06 105.32C104.793 105.347 104.54 105.36 104.3 105.36ZM116.486 105.36C115.126 105.36 113.9 105.093 112.806 104.56C111.74 104.027 110.9 103.307 110.286 102.4C109.673 101.493 109.366 100.467 109.366 99.32C109.366 97.88 109.726 96.7467 110.446 95.92C111.193 95.0667 112.406 94.4667 114.086 94.12C115.793 93.7467 118.086 93.56 120.966 93.56H122.846V96.04H121.006C119.086 96.04 117.566 96.1333 116.446 96.32C115.326 96.5067 114.526 96.8267 114.046 97.28C113.593 97.7067 113.366 98.3067 113.366 99.08C113.366 100.093 113.713 100.92 114.406 101.56C115.1 102.173 116.06 102.48 117.286 102.48C118.273 102.48 119.14 102.253 119.886 101.8C120.633 101.32 121.22 100.68 121.646 99.88C122.1 99.08 122.326 98.16 122.326 97.12V92.52C122.326 91 122.006 89.9067 121.366 89.24C120.726 88.5733 119.673 88.24 118.206 88.24C117.353 88.24 116.46 88.3467 115.526 88.56C114.62 88.7733 113.673 89.1333 112.686 89.64C112.233 89.8533 111.846 89.92 111.526 89.84C111.206 89.76 110.953 89.5867 110.766 89.32C110.58 89.0267 110.473 88.72 110.446 88.4C110.446 88.0533 110.526 87.72 110.686 87.4C110.873 87.08 111.18 86.84 111.606 86.68C112.78 86.12 113.94 85.72 115.086 85.48C116.233 85.24 117.313 85.12 118.326 85.12C120.113 85.12 121.58 85.4 122.726 85.96C123.9 86.52 124.766 87.3733 125.326 88.52C125.886 89.6667 126.166 91.1467 126.166 92.96V103.24C126.166 103.88 126.006 104.387 125.686 104.76C125.366 105.107 124.9 105.28 124.286 105.28C123.7 105.28 123.233 105.107 122.886 104.76C122.54 104.387 122.366 103.88 122.366 103.24V100.64H122.726C122.513 101.627 122.113 102.48 121.526 103.2C120.966 103.893 120.26 104.427 119.406 104.8C118.553 105.173 117.58 105.36 116.486 105.36ZM140.051 105.36C138.451 105.36 137.104 105.08 136.011 104.52C134.917 103.96 134.104 103.133 133.571 102.04C133.037 100.947 132.771 99.6133 132.771 98.04V88.6H130.371C129.837 88.6 129.424 88.4667 129.131 88.2C128.837 87.9067 128.691 87.52 128.691 87.04C128.691 86.5333 128.837 86.1467 129.131 85.88C129.424 85.6133 129.837 85.48 130.371 85.48H132.771V81.36C132.771 80.6933 132.944 80.1867 133.291 79.84C133.664 79.4933 134.171 79.32 134.811 79.32C135.451 79.32 135.944 79.4933 136.291 79.84C136.637 80.1867 136.811 80.6933 136.811 81.36V85.48H141.491C142.024 85.48 142.437 85.6133 142.731 85.88C143.024 86.1467 143.171 86.5333 143.171 87.04C143.171 87.52 143.024 87.9067 142.731 88.2C142.437 88.4667 142.024 88.6 141.491 88.6H136.811V97.72C136.811 99.1333 137.104 100.2 137.691 100.92C138.304 101.64 139.291 102 140.651 102C141.131 102 141.544 101.96 141.891 101.88C142.264 101.773 142.571 101.707 142.811 101.68C143.104 101.68 143.344 101.787 143.531 102C143.717 102.187 143.811 102.56 143.811 103.12C143.811 103.52 143.731 103.893 143.571 104.24C143.437 104.587 143.184 104.813 142.811 104.92C142.491 105.027 142.051 105.12 141.491 105.2C140.957 105.307 140.477 105.36 140.051 105.36ZM155.305 105.36C153.171 105.36 151.331 104.96 149.785 104.16C148.265 103.333 147.078 102.173 146.225 100.68C145.398 99.16 144.985 97.36 144.985 95.28C144.985 93.2533 145.398 91.48 146.225 89.96C147.051 88.44 148.185 87.2533 149.625 86.4C151.065 85.5467 152.705 85.12 154.545 85.12C155.905 85.12 157.118 85.3467 158.185 85.8C159.251 86.2267 160.158 86.8667 160.905 87.72C161.678 88.5467 162.251 89.56 162.625 90.76C163.025 91.96 163.225 93.3067 163.225 94.8C163.225 95.2533 163.091 95.6 162.825 95.84C162.558 96.0533 162.158 96.16 161.625 96.16H148.185V93.68H160.505L159.825 94.24C159.825 92.9067 159.625 91.7733 159.225 90.84C158.851 89.9067 158.278 89.2 157.505 88.72C156.758 88.2133 155.825 87.96 154.705 87.96C153.451 87.96 152.385 88.2533 151.505 88.84C150.651 89.4267 149.998 90.24 149.545 91.28C149.091 92.32 148.865 93.5333 148.865 94.92V95.16C148.865 97.5067 149.411 99.28 150.505 100.48C151.625 101.653 153.238 102.24 155.345 102.24C156.145 102.24 156.985 102.133 157.865 101.92C158.771 101.707 159.625 101.347 160.425 100.84C160.878 100.573 161.278 100.453 161.625 100.48C161.998 100.507 162.291 100.627 162.505 100.84C162.745 101.053 162.891 101.32 162.945 101.64C162.998 101.96 162.945 102.293 162.785 102.64C162.625 102.96 162.345 103.253 161.945 103.52C161.038 104.133 159.985 104.6 158.785 104.92C157.585 105.213 156.425 105.36 155.305 105.36ZM174.469 105.36C173.296 105.36 172.082 105.227 170.829 104.96C169.602 104.693 168.469 104.24 167.429 103.6C167.082 103.36 166.842 103.093 166.709 102.8C166.576 102.507 166.522 102.213 166.549 101.92C166.602 101.6 166.722 101.333 166.909 101.12C167.122 100.88 167.376 100.733 167.669 100.68C167.989 100.627 168.322 100.693 168.669 100.88C169.709 101.467 170.709 101.88 171.669 102.12C172.629 102.333 173.576 102.44 174.509 102.44C175.922 102.44 176.989 102.187 177.709 101.68C178.429 101.173 178.789 100.493 178.789 99.64C178.789 98.9467 178.549 98.4133 178.069 98.04C177.589 97.64 176.869 97.3333 175.909 97.12L172.109 96.36C170.456 96.0133 169.202 95.4 168.349 94.52C167.496 93.64 167.069 92.52 167.069 91.16C167.069 89.9333 167.402 88.8667 168.069 87.96C168.736 87.0533 169.669 86.36 170.869 85.88C172.069 85.3733 173.456 85.12 175.029 85.12C176.202 85.12 177.309 85.2667 178.349 85.56C179.389 85.8533 180.349 86.2933 181.229 86.88C181.576 87.0667 181.802 87.32 181.909 87.64C182.016 87.9333 182.029 88.2267 181.949 88.52C181.896 88.8133 181.762 89.08 181.549 89.32C181.336 89.5333 181.069 89.6667 180.749 89.72C180.456 89.7467 180.122 89.6667 179.749 89.48C178.949 88.9733 178.149 88.6133 177.349 88.4C176.576 88.1867 175.802 88.08 175.029 88.08C173.616 88.08 172.549 88.3467 171.829 88.88C171.136 89.3867 170.789 90.08 170.789 90.96C170.789 91.6267 171.002 92.1733 171.429 92.6C171.856 93.0267 172.522 93.3333 173.429 93.52L177.229 94.28C178.962 94.6267 180.269 95.2133 181.149 96.04C182.056 96.8667 182.509 97.9867 182.509 99.4C182.509 101.24 181.776 102.693 180.309 103.76C178.842 104.827 176.896 105.36 174.469 105.36ZM204.991 105.36C203.284 105.36 201.778 104.96 200.471 104.16C199.191 103.333 198.191 102.16 197.471 100.64C196.751 99.0933 196.391 97.2933 196.391 95.24C196.391 93.1333 196.751 91.3333 197.471 89.84C198.191 88.3467 199.191 87.1867 200.471 86.36C201.778 85.5333 203.284 85.12 204.991 85.12C206.698 85.12 208.164 85.5467 209.391 86.4C210.644 87.2267 211.484 88.3467 211.911 89.76H211.471V78.56C211.471 77.8933 211.644 77.3867 211.991 77.04C212.338 76.6933 212.831 76.52 213.471 76.52C214.111 76.52 214.604 76.6933 214.951 77.04C215.324 77.3867 215.511 77.8933 215.511 78.56V103.24C215.511 103.88 215.338 104.387 214.991 104.76C214.644 105.107 214.151 105.28 213.511 105.28C212.871 105.28 212.378 105.107 212.031 104.76C211.684 104.387 211.511 103.88 211.511 103.24V99.72L211.951 100.6C211.524 102.04 210.684 103.2 209.431 104.08C208.204 104.933 206.724 105.36 204.991 105.36ZM206.031 102.24C207.124 102.24 208.084 101.973 208.911 101.44C209.738 100.907 210.378 100.12 210.831 99.08C211.311 98.04 211.551 96.76 211.551 95.24C211.551 92.9467 211.044 91.2133 210.031 90.04C209.018 88.8667 207.684 88.28 206.031 88.28C204.911 88.28 203.938 88.5467 203.111 89.08C202.284 89.5867 201.631 90.36 201.151 91.4C200.698 92.44 200.471 93.72 200.471 95.24C200.471 97.5067 200.978 99.24 201.991 100.44C203.004 101.64 204.351 102.24 206.031 102.24ZM229.664 105.36C227.69 105.36 225.984 104.947 224.544 104.12C223.13 103.293 222.024 102.12 221.224 100.6C220.424 99.08 220.024 97.2933 220.024 95.24C220.024 93.6667 220.25 92.2667 220.704 91.04C221.157 89.8133 221.797 88.76 222.624 87.88C223.477 86.9733 224.49 86.2933 225.664 85.84C226.864 85.36 228.197 85.12 229.664 85.12C231.61 85.12 233.29 85.5333 234.704 86.36C236.144 87.1867 237.264 88.36 238.064 89.88C238.864 91.3733 239.264 93.16 239.264 95.24C239.264 96.7867 239.037 98.1867 238.584 99.44C238.13 100.693 237.477 101.76 236.624 102.64C235.797 103.52 234.784 104.2 233.584 104.68C232.41 105.133 231.104 105.36 229.664 105.36ZM229.664 102.24C230.757 102.24 231.717 101.973 232.544 101.44C233.37 100.907 234.01 100.12 234.464 99.08C234.944 98.04 235.184 96.76 235.184 95.24C235.184 92.9467 234.677 91.2133 233.664 90.04C232.65 88.8667 231.317 88.28 229.664 88.28C228.544 88.28 227.57 88.5467 226.744 89.08C225.917 89.5867 225.264 90.36 224.784 91.4C224.33 92.44 224.104 93.72 224.104 95.24C224.104 97.5067 224.61 99.24 225.624 100.44C226.637 101.64 227.984 102.24 229.664 102.24ZM256.428 105.28C255.788 105.28 255.294 105.107 254.948 104.76C254.601 104.387 254.428 103.88 254.428 103.24V87.24C254.428 86.5733 254.601 86.0667 254.948 85.72C255.294 85.3733 255.774 85.2 256.388 85.2C257.028 85.2 257.508 85.3733 257.828 85.72C258.174 86.0667 258.348 86.5733 258.348 87.24V90.52L257.908 89.64C258.441 88.2267 259.268 87.12 260.388 86.32C261.508 85.52 262.854 85.12 264.428 85.12C266.054 85.12 267.374 85.5067 268.388 86.28C269.401 87.0533 270.094 88.24 270.468 89.84H269.908C270.414 88.3733 271.281 87.2267 272.508 86.4C273.734 85.5467 275.161 85.12 276.788 85.12C278.281 85.12 279.508 85.4133 280.468 86C281.428 86.56 282.148 87.4267 282.628 88.6C283.108 89.7467 283.348 91.2 283.348 92.96V103.24C283.348 103.88 283.161 104.387 282.788 104.76C282.441 105.107 281.948 105.28 281.308 105.28C280.668 105.28 280.174 105.107 279.828 104.76C279.481 104.387 279.308 103.88 279.308 103.24V93.16C279.308 91.5067 279.014 90.2933 278.428 89.52C277.868 88.7467 276.934 88.36 275.628 88.36C274.161 88.36 273.001 88.8667 272.148 89.88C271.294 90.8933 270.868 92.2933 270.868 94.08V103.24C270.868 103.88 270.694 104.387 270.348 104.76C270.001 105.107 269.508 105.28 268.868 105.28C268.228 105.28 267.721 105.107 267.348 104.76C267.001 104.387 266.828 103.88 266.828 103.24V93.16C266.828 91.5067 266.548 90.2933 265.988 89.52C265.428 88.7467 264.494 88.36 263.188 88.36C261.721 88.36 260.561 88.8667 259.708 89.88C258.881 90.8933 258.468 92.2933 258.468 94.08V103.24C258.468 104.6 257.788 105.28 256.428 105.28ZM298.156 105.36C296.023 105.36 294.183 104.96 292.636 104.16C291.116 103.333 289.93 102.173 289.076 100.68C288.25 99.16 287.836 97.36 287.836 95.28C287.836 93.2533 288.25 91.48 289.076 89.96C289.903 88.44 291.036 87.2533 292.476 86.4C293.916 85.5467 295.556 85.12 297.396 85.12C298.756 85.12 299.97 85.3467 301.036 85.8C302.103 86.2267 303.01 86.8667 303.756 87.72C304.53 88.5467 305.103 89.56 305.476 90.76C305.876 91.96 306.076 93.3067 306.076 94.8C306.076 95.2533 305.943 95.6 305.676 95.84C305.41 96.0533 305.01 96.16 304.476 96.16H291.036V93.68H303.356L302.676 94.24C302.676 92.9067 302.476 91.7733 302.076 90.84C301.703 89.9067 301.13 89.2 300.356 88.72C299.61 88.2133 298.676 87.96 297.556 87.96C296.303 87.96 295.236 88.2533 294.356 88.84C293.503 89.4267 292.85 90.24 292.396 91.28C291.943 92.32 291.716 93.5333 291.716 94.92V95.16C291.716 97.5067 292.263 99.28 293.356 100.48C294.476 101.653 296.09 102.24 298.196 102.24C298.996 102.24 299.836 102.133 300.716 101.92C301.623 101.707 302.476 101.347 303.276 100.84C303.73 100.573 304.13 100.453 304.476 100.48C304.85 100.507 305.143 100.627 305.356 100.84C305.596 101.053 305.743 101.32 305.796 101.64C305.85 101.96 305.796 102.293 305.636 102.64C305.476 102.96 305.196 103.253 304.796 103.52C303.89 104.133 302.836 104.6 301.636 104.92C300.436 105.213 299.276 105.36 298.156 105.36ZM312.521 105.28C311.854 105.28 311.347 105.107 311.001 104.76C310.654 104.387 310.481 103.88 310.481 103.24V87.24C310.481 86.5733 310.654 86.0667 311.001 85.72C311.347 85.3733 311.827 85.2 312.441 85.2C313.081 85.2 313.561 85.3733 313.881 85.72C314.227 86.0667 314.401 86.5733 314.401 87.24V90.16H314.001C314.427 88.56 315.214 87.3467 316.361 86.52C317.507 85.6933 318.974 85.2133 320.761 85.08C321.241 85.0533 321.614 85.1733 321.881 85.44C322.174 85.7067 322.334 86.12 322.361 86.68C322.414 87.24 322.294 87.6933 322.001 88.04C321.707 88.36 321.254 88.5467 320.641 88.6L319.881 88.68C318.147 88.84 316.827 89.3867 315.921 90.32C315.014 91.2533 314.561 92.5333 314.561 94.16V103.24C314.561 103.88 314.387 104.387 314.041 104.76C313.721 105.107 313.214 105.28 312.521 105.28ZM333.729 105.36C331.729 105.36 329.996 104.947 328.529 104.12C327.089 103.267 325.969 102.08 325.169 100.56C324.369 99.0133 323.969 97.2 323.969 95.12C323.969 93.5733 324.196 92.1867 324.649 90.96C325.102 89.7067 325.742 88.6533 326.569 87.8C327.422 86.9467 328.449 86.2933 329.649 85.84C330.876 85.36 332.236 85.12 333.729 85.12C334.662 85.12 335.636 85.2667 336.649 85.56C337.689 85.8267 338.649 86.28 339.529 86.92C339.876 87.1333 340.089 87.4 340.169 87.72C340.276 88.0133 340.289 88.32 340.209 88.64C340.156 88.96 340.009 89.24 339.769 89.48C339.556 89.6933 339.289 89.8267 338.969 89.88C338.649 89.9067 338.302 89.8133 337.929 89.6C337.289 89.1467 336.636 88.8267 335.969 88.64C335.302 88.4267 334.662 88.32 334.049 88.32C333.089 88.32 332.236 88.48 331.489 88.8C330.769 89.0933 330.156 89.5333 329.649 90.12C329.142 90.68 328.756 91.3867 328.489 92.24C328.249 93.0933 328.129 94.0667 328.129 95.16C328.129 97.3467 328.636 99.0667 329.649 100.32C330.689 101.547 332.156 102.16 334.049 102.16C334.662 102.16 335.302 102.067 335.969 101.88C336.636 101.693 337.289 101.373 337.929 100.92C338.302 100.707 338.649 100.627 338.969 100.68C339.289 100.733 339.542 100.88 339.729 101.12C339.942 101.333 340.076 101.6 340.129 101.92C340.209 102.213 340.196 102.52 340.089 102.84C339.982 103.16 339.756 103.427 339.409 103.64C338.556 104.253 337.622 104.693 336.609 104.96C335.622 105.227 334.662 105.36 333.729 105.36ZM349.885 105.36C348.525 105.36 347.298 105.093 346.205 104.56C345.138 104.027 344.298 103.307 343.685 102.4C343.071 101.493 342.765 100.467 342.765 99.32C342.765 97.88 343.125 96.7467 343.845 95.92C344.591 95.0667 345.805 94.4667 347.485 94.12C349.191 93.7467 351.485 93.56 354.365 93.56H356.245V96.04H354.405C352.485 96.04 350.965 96.1333 349.845 96.32C348.725 96.5067 347.925 96.8267 347.445 97.28C346.991 97.7067 346.765 98.3067 346.765 99.08C346.765 100.093 347.111 100.92 347.805 101.56C348.498 102.173 349.458 102.48 350.685 102.48C351.671 102.48 352.538 102.253 353.285 101.8C354.031 101.32 354.618 100.68 355.045 99.88C355.498 99.08 355.725 98.16 355.725 97.12V92.52C355.725 91 355.405 89.9067 354.765 89.24C354.125 88.5733 353.071 88.24 351.605 88.24C350.751 88.24 349.858 88.3467 348.925 88.56C348.018 88.7733 347.071 89.1333 346.085 89.64C345.631 89.8533 345.245 89.92 344.925 89.84C344.605 89.76 344.351 89.5867 344.165 89.32C343.978 89.0267 343.871 88.72 343.845 88.4C343.845 88.0533 343.925 87.72 344.085 87.4C344.271 87.08 344.578 86.84 345.005 86.68C346.178 86.12 347.338 85.72 348.485 85.48C349.631 85.24 350.711 85.12 351.725 85.12C353.511 85.12 354.978 85.4 356.125 85.96C357.298 86.52 358.165 87.3733 358.725 88.52C359.285 89.6667 359.565 91.1467 359.565 92.96V103.24C359.565 103.88 359.405 104.387 359.085 104.76C358.765 105.107 358.298 105.28 357.685 105.28C357.098 105.28 356.631 105.107 356.285 104.76C355.938 104.387 355.765 103.88 355.765 103.24V100.64H356.125C355.911 101.627 355.511 102.48 354.925 103.2C354.365 103.893 353.658 104.427 352.805 104.8C351.951 105.173 350.978 105.36 349.885 105.36ZM372.569 105.36C370.862 105.36 369.356 104.96 368.049 104.16C366.769 103.333 365.769 102.16 365.049 100.64C364.329 99.0933 363.969 97.2933 363.969 95.24C363.969 93.1333 364.329 91.3333 365.049 89.84C365.769 88.3467 366.769 87.1867 368.049 86.36C369.356 85.5333 370.862 85.12 372.569 85.12C374.276 85.12 375.742 85.5467 376.969 86.4C378.222 87.2267 379.062 88.3467 379.489 89.76H379.049V78.56C379.049 77.8933 379.222 77.3867 379.569 77.04C379.916 76.6933 380.409 76.52 381.049 76.52C381.689 76.52 382.182 76.6933 382.529 77.04C382.902 77.3867 383.089 77.8933 383.089 78.56V103.24C383.089 103.88 382.916 104.387 382.569 104.76C382.222 105.107 381.729 105.28 381.089 105.28C380.449 105.28 379.956 105.107 379.609 104.76C379.262 104.387 379.089 103.88 379.089 103.24V99.72L379.529 100.6C379.102 102.04 378.262 103.2 377.009 104.08C375.782 104.933 374.302 105.36 372.569 105.36ZM373.609 102.24C374.702 102.24 375.662 101.973 376.489 101.44C377.316 100.907 377.956 100.12 378.409 99.08C378.889 98.04 379.129 96.76 379.129 95.24C379.129 92.9467 378.622 91.2133 377.609 90.04C376.596 88.8667 375.262 88.28 373.609 88.28C372.489 88.28 371.516 88.5467 370.689 89.08C369.862 89.5867 369.209 90.36 368.729 91.4C368.276 92.44 368.049 93.72 368.049 95.24C368.049 97.5067 368.556 99.24 369.569 100.44C370.582 101.64 371.929 102.24 373.609 102.24ZM397.242 105.36C395.269 105.36 393.562 104.947 392.122 104.12C390.709 103.293 389.602 102.12 388.802 100.6C388.002 99.08 387.602 97.2933 387.602 95.24C387.602 93.6667 387.829 92.2667 388.282 91.04C388.735 89.8133 389.375 88.76 390.202 87.88C391.055 86.9733 392.069 86.2933 393.242 85.84C394.442 85.36 395.775 85.12 397.242 85.12C399.189 85.12 400.869 85.5333 402.282 86.36C403.722 87.1867 404.842 88.36 405.642 89.88C406.442 91.3733 406.842 93.16 406.842 95.24C406.842 96.7867 406.615 98.1867 406.162 99.44C405.709 100.693 405.055 101.76 404.202 102.64C403.375 103.52 402.362 104.2 401.162 104.68C399.989 105.133 398.682 105.36 397.242 105.36ZM397.242 102.24C398.335 102.24 399.295 101.973 400.122 101.44C400.949 100.907 401.589 100.12 402.042 99.08C402.522 98.04 402.762 96.76 402.762 95.24C402.762 92.9467 402.255 91.2133 401.242 90.04C400.229 88.8667 398.895 88.28 397.242 88.28C396.122 88.28 395.149 88.5467 394.322 89.08C393.495 89.5867 392.842 90.36 392.362 91.4C391.909 92.44 391.682 93.72 391.682 95.24C391.682 97.5067 392.189 99.24 393.202 100.44C394.215 101.64 395.562 102.24 397.242 102.24ZM423.926 105.28C423.286 105.28 422.793 105.107 422.446 104.76C422.099 104.387 421.926 103.88 421.926 103.24V87.24C421.926 86.5733 422.099 86.0667 422.446 85.72C422.793 85.3733 423.273 85.2 423.886 85.2C424.526 85.2 425.006 85.3733 425.326 85.72C425.673 86.0667 425.846 86.5733 425.846 87.24V90.36L425.406 89.64C425.993 88.1467 426.913 87.0267 428.166 86.28C429.419 85.5067 430.859 85.12 432.486 85.12C434.033 85.12 435.313 85.4133 436.326 86C437.366 86.56 438.139 87.4267 438.646 88.6C439.153 89.7467 439.406 91.2 439.406 92.96V103.24C439.406 103.88 439.233 104.387 438.886 104.76C438.539 105.107 438.046 105.28 437.406 105.28C436.739 105.28 436.233 105.107 435.886 104.76C435.539 104.387 435.366 103.88 435.366 103.24V93.2C435.366 91.52 435.033 90.2933 434.366 89.52C433.726 88.7467 432.713 88.36 431.326 88.36C429.699 88.36 428.393 88.8667 427.406 89.88C426.446 90.8933 425.966 92.2533 425.966 93.96V103.24C425.966 104.6 425.286 105.28 423.926 105.28ZM451.213 105.36C449.853 105.36 448.626 105.093 447.533 104.56C446.466 104.027 445.626 103.307 445.013 102.4C444.399 101.493 444.093 100.467 444.093 99.32C444.093 97.88 444.453 96.7467 445.173 95.92C445.919 95.0667 447.133 94.4667 448.813 94.12C450.519 93.7467 452.813 93.56 455.693 93.56H457.573V96.04H455.733C453.813 96.04 452.293 96.1333 451.173 96.32C450.053 96.5067 449.253 96.8267 448.773 97.28C448.319 97.7067 448.093 98.3067 448.093 99.08C448.093 100.093 448.439 100.92 449.133 101.56C449.826 102.173 450.786 102.48 452.013 102.48C452.999 102.48 453.866 102.253 454.613 101.8C455.359 101.32 455.946 100.68 456.373 99.88C456.826 99.08 457.053 98.16 457.053 97.12V92.52C457.053 91 456.733 89.9067 456.093 89.24C455.453 88.5733 454.399 88.24 452.933 88.24C452.079 88.24 451.186 88.3467 450.253 88.56C449.346 88.7733 448.399 89.1333 447.413 89.64C446.959 89.8533 446.573 89.92 446.253 89.84C445.933 89.76 445.679 89.5867 445.493 89.32C445.306 89.0267 445.199 88.72 445.173 88.4C445.173 88.0533 445.253 87.72 445.413 87.4C445.599 87.08 445.906 86.84 446.333 86.68C447.506 86.12 448.666 85.72 449.813 85.48C450.959 85.24 452.039 85.12 453.053 85.12C454.839 85.12 456.306 85.4 457.453 85.96C458.626 86.52 459.493 87.3733 460.053 88.52C460.613 89.6667 460.893 91.1467 460.893 92.96V103.24C460.893 103.88 460.733 104.387 460.413 104.76C460.093 105.107 459.626 105.28 459.013 105.28C458.426 105.28 457.959 105.107 457.613 104.76C457.266 104.387 457.093 103.88 457.093 103.24V100.64H457.453C457.239 101.627 456.839 102.48 456.253 103.2C455.693 103.893 454.986 104.427 454.133 104.8C453.279 105.173 452.306 105.36 451.213 105.36ZM483.844 105.36C482.671 105.36 481.457 105.227 480.204 104.96C478.977 104.693 477.844 104.24 476.804 103.6C476.457 103.36 476.217 103.093 476.084 102.8C475.951 102.507 475.897 102.213 475.924 101.92C475.977 101.6 476.097 101.333 476.284 101.12C476.497 100.88 476.751 100.733 477.044 100.68C477.364 100.627 477.697 100.693 478.044 100.88C479.084 101.467 480.084 101.88 481.044 102.12C482.004 102.333 482.951 102.44 483.884 102.44C485.297 102.44 486.364 102.187 487.084 101.68C487.804 101.173 488.164 100.493 488.164 99.64C488.164 98.9467 487.924 98.4133 487.444 98.04C486.964 97.64 486.244 97.3333 485.284 97.12L481.484 96.36C479.831 96.0133 478.577 95.4 477.724 94.52C476.871 93.64 476.444 92.52 476.444 91.16C476.444 89.9333 476.777 88.8667 477.444 87.96C478.111 87.0533 479.044 86.36 480.244 85.88C481.444 85.3733 482.831 85.12 484.404 85.12C485.577 85.12 486.684 85.2667 487.724 85.56C488.764 85.8533 489.724 86.2933 490.604 86.88C490.951 87.0667 491.177 87.32 491.284 87.64C491.391 87.9333 491.404 88.2267 491.324 88.52C491.271 88.8133 491.137 89.08 490.924 89.32C490.711 89.5333 490.444 89.6667 490.124 89.72C489.831 89.7467 489.497 89.6667 489.124 89.48C488.324 88.9733 487.524 88.6133 486.724 88.4C485.951 88.1867 485.177 88.08 484.404 88.08C482.991 88.08 481.924 88.3467 481.204 88.88C480.511 89.3867 480.164 90.08 480.164 90.96C480.164 91.6267 480.377 92.1733 480.804 92.6C481.231 93.0267 481.897 93.3333 482.804 93.52L486.604 94.28C488.337 94.6267 489.644 95.2133 490.524 96.04C491.431 96.8667 491.884 97.9867 491.884 99.4C491.884 101.24 491.151 102.693 489.684 103.76C488.217 104.827 486.271 105.36 483.844 105.36ZM503.339 105.36C501.766 105.36 500.446 105.067 499.379 104.48C498.339 103.893 497.552 103.027 497.019 101.88C496.512 100.707 496.259 99.24 496.259 97.48V87.24C496.259 86.5467 496.432 86.04 496.779 85.72C497.126 85.3733 497.619 85.2 498.259 85.2C498.899 85.2 499.392 85.3733 499.739 85.72C500.112 86.04 500.299 86.5467 500.299 87.24V97.52C500.299 99.0933 500.619 100.253 501.259 101C501.899 101.747 502.912 102.12 504.299 102.12C505.819 102.12 507.046 101.613 507.979 100.6C508.939 99.56 509.419 98.2 509.419 96.52V87.24C509.419 86.5467 509.592 86.04 509.939 85.72C510.286 85.3733 510.792 85.2 511.459 85.2C512.099 85.2 512.592 85.3733 512.939 85.72C513.286 86.04 513.459 86.5467 513.459 87.24V103.24C513.459 104.6 512.806 105.28 511.499 105.28C510.886 105.28 510.406 105.107 510.059 104.76C509.712 104.387 509.539 103.88 509.539 103.24V99.84L510.059 100.72C509.526 102.213 508.672 103.36 507.499 104.16C506.326 104.96 504.939 105.36 503.339 105.36ZM525.393 105.36C524.033 105.36 522.806 105.093 521.713 104.56C520.646 104.027 519.806 103.307 519.193 102.4C518.579 101.493 518.273 100.467 518.273 99.32C518.273 97.88 518.633 96.7467 519.353 95.92C520.099 95.0667 521.313 94.4667 522.993 94.12C524.699 93.7467 526.993 93.56 529.873 93.56H531.753V96.04H529.913C527.993 96.04 526.473 96.1333 525.353 96.32C524.233 96.5067 523.433 96.8267 522.953 97.28C522.499 97.7067 522.273 98.3067 522.273 99.08C522.273 100.093 522.619 100.92 523.313 101.56C524.006 102.173 524.966 102.48 526.193 102.48C527.179 102.48 528.046 102.253 528.793 101.8C529.539 101.32 530.126 100.68 530.553 99.88C531.006 99.08 531.233 98.16 531.233 97.12V92.52C531.233 91 530.913 89.9067 530.273 89.24C529.633 88.5733 528.579 88.24 527.113 88.24C526.259 88.24 525.366 88.3467 524.433 88.56C523.526 88.7733 522.579 89.1333 521.592 89.64C521.139 89.8533 520.753 89.92 520.433 89.84C520.113 89.76 519.859 89.5867 519.673 89.32C519.486 89.0267 519.379 88.72 519.353 88.4C519.353 88.0533 519.433 87.72 519.593 87.4C519.779 87.08 520.086 86.84 520.513 86.68C521.686 86.12 522.846 85.72 523.993 85.48C525.139 85.24 526.219 85.12 527.233 85.12C529.019 85.12 530.486 85.4 531.633 85.96C532.806 86.52 533.673 87.3733 534.233 88.52C534.793 89.6667 535.073 91.1467 535.073 92.96V103.24C535.073 103.88 534.913 104.387 534.593 104.76C534.273 105.107 533.806 105.28 533.193 105.28C532.606 105.28 532.139 105.107 531.793 104.76C531.446 104.387 531.273 103.88 531.273 103.24V100.64H531.633C531.419 101.627 531.019 102.48 530.433 103.2C529.873 103.893 529.166 104.427 528.313 104.8C527.459 105.173 526.486 105.36 525.393 105.36ZM12.16 143.36C10.56 143.36 9.21333 143.08 8.12 142.52C7.02667 141.96 6.21333 141.133 5.68 140.04C5.14667 138.947 4.88 137.613 4.88 136.04V126.6H2.48C1.94667 126.6 1.53333 126.467 1.24 126.2C0.946667 125.907 0.8 125.52 0.8 125.04C0.8 124.533 0.946667 124.147 1.24 123.88C1.53333 123.613 1.94667 123.48 2.48 123.48H4.88V119.36C4.88 118.693 5.05333 118.187 5.4 117.84C5.77333 117.493 6.28 117.32 6.92 117.32C7.56 117.32 8.05333 117.493 8.4 117.84C8.74667 118.187 8.92 118.693 8.92 119.36V123.48H13.6C14.1333 123.48 14.5467 123.613 14.84 123.88C15.1333 124.147 15.28 124.533 15.28 125.04C15.28 125.52 15.1333 125.907 14.84 126.2C14.5467 126.467 14.1333 126.6 13.6 126.6H8.92V135.72C8.92 137.133 9.21333 138.2 9.8 138.92C10.4133 139.64 11.4 140 12.76 140C13.24 140 13.6533 139.96 14 139.88C14.3733 139.773 14.68 139.707 14.92 139.68C15.2133 139.68 15.4533 139.787 15.64 140C15.8267 140.187 15.92 140.56 15.92 141.12C15.92 141.52 15.84 141.893 15.68 142.24C15.5467 142.587 15.2933 142.813 14.92 142.92C14.6 143.027 14.16 143.12 13.6 143.2C13.0667 143.307 12.5867 143.36 12.16 143.36ZM27.4141 143.36C25.2807 143.36 23.4407 142.96 21.8941 142.16C20.3741 141.333 19.1874 140.173 18.3341 138.68C17.5074 137.16 17.0941 135.36 17.0941 133.28C17.0941 131.253 17.5074 129.48 18.3341 127.96C19.1607 126.44 20.2941 125.253 21.7341 124.4C23.1741 123.547 24.8141 123.12 26.6541 123.12C28.0141 123.12 29.2274 123.347 30.2941 123.8C31.3607 124.227 32.2674 124.867 33.0141 125.72C33.7874 126.547 34.3607 127.56 34.7341 128.76C35.1341 129.96 35.3341 131.307 35.3341 132.8C35.3341 133.253 35.2007 133.6 34.9341 133.84C34.6674 134.053 34.2674 134.16 33.7341 134.16H20.2941V131.68H32.6141L31.9341 132.24C31.9341 130.907 31.7341 129.773 31.3341 128.84C30.9607 127.907 30.3874 127.2 29.6141 126.72C28.8674 126.213 27.9341 125.96 26.8141 125.96C25.5607 125.96 24.4941 126.253 23.6141 126.84C22.7607 127.427 22.1074 128.24 21.6541 129.28C21.2007 130.32 20.9741 131.533 20.9741 132.92V133.16C20.9741 135.507 21.5207 137.28 22.6141 138.48C23.7341 139.653 25.3474 140.24 27.4541 140.24C28.2541 140.24 29.0941 140.133 29.9741 139.92C30.8807 139.707 31.7341 139.347 32.5341 138.84C32.9874 138.573 33.3874 138.453 33.7341 138.48C34.1074 138.507 34.4007 138.627 34.6141 138.84C34.8541 139.053 35.0007 139.32 35.0541 139.64C35.1074 139.96 35.0541 140.293 34.8941 140.64C34.7341 140.96 34.4541 141.253 34.0541 141.52C33.1474 142.133 32.0941 142.6 30.8941 142.92C29.6941 143.213 28.5341 143.36 27.4141 143.36ZM46.0184 143.36C43.9384 143.36 42.3651 142.76 41.2984 141.56C40.2584 140.333 39.7384 138.573 39.7384 136.28V116.56C39.7384 115.893 39.9118 115.387 40.2584 115.04C40.6051 114.693 41.0984 114.52 41.7384 114.52C42.3784 114.52 42.8718 114.693 43.2184 115.04C43.5918 115.387 43.7784 115.893 43.7784 116.56V136.04C43.7784 137.373 44.0451 138.373 44.5784 139.04C45.1384 139.68 45.9384 140 46.9784 140C47.2184 140 47.4318 140 47.6184 140C47.8051 139.973 47.9918 139.947 48.1784 139.92C48.4984 139.893 48.7251 139.987 48.8584 140.2C48.9918 140.387 49.0584 140.787 49.0584 141.4C49.0584 141.96 48.9384 142.4 48.6984 142.72C48.4584 143.013 48.0718 143.2 47.5384 143.28C47.2984 143.307 47.0451 143.32 46.7784 143.32C46.5118 143.347 46.2584 143.36 46.0184 143.36ZM58.205 143.36C56.845 143.36 55.6183 143.093 54.525 142.56C53.4583 142.027 52.6183 141.307 52.005 140.4C51.3917 139.493 51.085 138.467 51.085 137.32C51.085 135.88 51.445 134.747 52.165 133.92C52.9117 133.067 54.125 132.467 55.805 132.12C57.5117 131.747 59.805 131.56 62.685 131.56H64.565V134.04H62.725C60.805 134.04 59.285 134.133 58.165 134.32C57.045 134.507 56.245 134.827 55.765 135.28C55.3117 135.707 55.085 136.307 55.085 137.08C55.085 138.093 55.4317 138.92 56.125 139.56C56.8183 140.173 57.7783 140.48 59.005 140.48C59.9917 140.48 60.8583 140.253 61.605 139.8C62.3517 139.32 62.9383 138.68 63.365 137.88C63.8183 137.08 64.045 136.16 64.045 135.12V130.52C64.045 129 63.725 127.907 63.085 127.24C62.445 126.573 61.3917 126.24 59.925 126.24C59.0717 126.24 58.1783 126.347 57.245 126.56C56.3383 126.773 55.3917 127.133 54.405 127.64C53.9517 127.853 53.565 127.92 53.245 127.84C52.925 127.76 52.6717 127.587 52.485 127.32C52.2983 127.027 52.1917 126.72 52.165 126.4C52.165 126.053 52.245 125.72 52.405 125.4C52.5917 125.08 52.8983 124.84 53.325 124.68C54.4983 124.12 55.6583 123.72 56.805 123.48C57.9517 123.24 59.0317 123.12 60.045 123.12C61.8317 123.12 63.2983 123.4 64.445 123.96C65.6183 124.52 66.485 125.373 67.045 126.52C67.605 127.667 67.885 129.147 67.885 130.96V141.24C67.885 141.88 67.725 142.387 67.405 142.76C67.085 143.107 66.6183 143.28 66.005 143.28C65.4183 143.28 64.9517 143.107 64.605 142.76C64.2583 142.387 64.085 141.88 64.085 141.24V138.64H64.445C64.2317 139.627 63.8317 140.48 63.245 141.2C62.685 141.893 61.9783 142.427 61.125 142.8C60.2717 143.173 59.2983 143.36 58.205 143.36ZM75.4094 135.4C74.9827 135.4 74.6494 135.267 74.4094 135C74.196 134.733 74.0627 134.36 74.0094 133.88L73.0494 117.16C72.996 116.36 73.1694 115.72 73.5694 115.24C73.9694 114.76 74.5827 114.52 75.4094 114.52C76.1827 114.52 76.7694 114.76 77.1694 115.24C77.5694 115.72 77.7294 116.36 77.6494 117.16L76.6894 133.88C76.6627 134.36 76.5294 134.733 76.2894 135C76.076 135.267 75.7827 135.4 75.4094 135.4ZM75.4094 143.16C74.636 143.16 74.0094 142.92 73.5294 142.44C73.0494 141.96 72.8094 141.347 72.8094 140.6C72.8094 139.853 73.0494 139.253 73.5294 138.8C74.0094 138.32 74.636 138.08 75.4094 138.08C76.1827 138.08 76.796 138.32 77.2494 138.8C77.7027 139.253 77.9294 139.853 77.9294 140.6C77.9294 141.347 77.7027 141.96 77.2494 142.44C76.796 142.92 76.1827 143.16 75.4094 143.16Z" fill="white"/>
</svg>
