<svg width="176" height="39" viewBox="0 0 176 39" fill="none" xmlns="http://www.w3.org/2000/svg">
<path d="M48.9759 25.5V13.8636H51.0838V23.733H56.2088V25.5H48.9759ZM61.7543 25.6705C60.902 25.6705 60.1634 25.483 59.5384 25.108C58.9134 24.733 58.4285 24.2083 58.0838 23.5341C57.7429 22.8598 57.5724 22.072 57.5724 21.1705C57.5724 20.2689 57.7429 19.4792 58.0838 18.8011C58.4285 18.1231 58.9134 17.5966 59.5384 17.2216C60.1634 16.8466 60.902 16.6591 61.7543 16.6591C62.6065 16.6591 63.3452 16.8466 63.9702 17.2216C64.5952 17.5966 65.0781 18.1231 65.419 18.8011C65.7637 19.4792 65.9361 20.2689 65.9361 21.1705C65.9361 22.072 65.7637 22.8598 65.419 23.5341C65.0781 24.2083 64.5952 24.733 63.9702 25.108C63.3452 25.483 62.6065 25.6705 61.7543 25.6705ZM61.7656 24.0227C62.2277 24.0227 62.6141 23.8958 62.9247 23.642C63.2353 23.3845 63.4664 23.0398 63.6179 22.608C63.7732 22.1761 63.8509 21.6951 63.8509 21.1648C63.8509 20.6307 63.7732 20.1477 63.6179 19.7159C63.4664 19.2803 63.2353 18.9337 62.9247 18.6761C62.6141 18.4186 62.2277 18.2898 61.7656 18.2898C61.2921 18.2898 60.8982 18.4186 60.5838 18.6761C60.2732 18.9337 60.0402 19.2803 59.8849 19.7159C59.7334 20.1477 59.6577 20.6307 59.6577 21.1648C59.6577 21.6951 59.7334 22.1761 59.8849 22.608C60.0402 23.0398 60.2732 23.3845 60.5838 23.642C60.8982 23.8958 61.2921 24.0227 61.7656 24.0227ZM71.4773 28.9545C70.7386 28.9545 70.1042 28.8542 69.5739 28.6534C69.0436 28.4564 68.6174 28.1913 68.2955 27.858C67.9735 27.5246 67.75 27.1553 67.625 26.75L69.4773 26.3011C69.5606 26.4716 69.6818 26.6402 69.8409 26.8068C70 26.9773 70.214 27.1174 70.483 27.2273C70.7557 27.3409 71.0985 27.3977 71.5114 27.3977C72.0947 27.3977 72.5777 27.2557 72.9602 26.9716C73.3428 26.6913 73.5341 26.2292 73.5341 25.5852V23.9318H73.4318C73.3258 24.1439 73.1705 24.3617 72.9659 24.5852C72.7652 24.8087 72.4981 24.9962 72.1648 25.1477C71.8352 25.2992 71.4205 25.375 70.9205 25.375C70.25 25.375 69.642 25.2178 69.0966 24.9034C68.5549 24.5852 68.1231 24.1117 67.8011 23.483C67.483 22.8504 67.3239 22.0587 67.3239 21.108C67.3239 20.1496 67.483 19.3409 67.8011 18.6818C68.1231 18.0189 68.5568 17.517 69.1023 17.1761C69.6477 16.8314 70.2557 16.6591 70.9261 16.6591C71.4375 16.6591 71.858 16.7462 72.1875 16.9205C72.5208 17.0909 72.786 17.2973 72.983 17.5398C73.1799 17.7784 73.3295 18.0038 73.4318 18.2159H73.5455V16.7727H75.5739V25.642C75.5739 26.3883 75.3958 27.0057 75.0398 27.4943C74.6837 27.983 74.197 28.3485 73.5795 28.5909C72.9621 28.8333 72.2614 28.9545 71.4773 28.9545ZM71.4943 23.7614C71.9299 23.7614 72.3011 23.6553 72.608 23.4432C72.9148 23.2311 73.1477 22.9261 73.3068 22.5284C73.4659 22.1307 73.5455 21.6534 73.5455 21.0966C73.5455 20.5473 73.4659 20.0663 73.3068 19.6534C73.1515 19.2405 72.9205 18.9205 72.6136 18.6932C72.3106 18.4621 71.9375 18.3466 71.4943 18.3466C71.036 18.3466 70.6534 18.4659 70.3466 18.7045C70.0398 18.9432 69.8087 19.2708 69.6534 19.6875C69.4981 20.1004 69.4205 20.5701 69.4205 21.0966C69.4205 21.6307 69.4981 22.0985 69.6534 22.5C69.8125 22.8977 70.0455 23.2083 70.3523 23.4318C70.6629 23.6515 71.0436 23.7614 71.4943 23.7614ZM81.4886 25.6705C80.6364 25.6705 79.8977 25.483 79.2727 25.108C78.6477 24.733 78.1629 24.2083 77.8182 23.5341C77.4773 22.8598 77.3068 22.072 77.3068 21.1705C77.3068 20.2689 77.4773 19.4792 77.8182 18.8011C78.1629 18.1231 78.6477 17.5966 79.2727 17.2216C79.8977 16.8466 80.6364 16.6591 81.4886 16.6591C82.3409 16.6591 83.0795 16.8466 83.7045 17.2216C84.3295 17.5966 84.8125 18.1231 85.1534 18.8011C85.4981 19.4792 85.6705 20.2689 85.6705 21.1705C85.6705 22.072 85.4981 22.8598 85.1534 23.5341C84.8125 24.2083 84.3295 24.733 83.7045 25.108C83.0795 25.483 82.3409 25.6705 81.4886 25.6705ZM81.5 24.0227C81.9621 24.0227 82.3485 23.8958 82.6591 23.642C82.9697 23.3845 83.2008 23.0398 83.3523 22.608C83.5076 22.1761 83.5852 21.6951 83.5852 21.1648C83.5852 20.6307 83.5076 20.1477 83.3523 19.7159C83.2008 19.2803 82.9697 18.9337 82.6591 18.6761C82.3485 18.4186 81.9621 18.2898 81.5 18.2898C81.0265 18.2898 80.6326 18.4186 80.3182 18.6761C80.0076 18.9337 79.7746 19.2803 79.6193 19.7159C79.4678 20.1477 79.392 20.6307 79.392 21.1648C79.392 21.6951 79.4678 22.1761 79.6193 22.608C79.7746 23.0398 80.0076 23.3845 80.3182 23.642C80.6326 23.8958 81.0265 24.0227 81.5 24.0227ZM92.9787 21.8295V16.7727H95.0355V25.5H93.0412V23.9489H92.9503C92.7533 24.4375 92.4295 24.8371 91.9787 25.1477C91.5317 25.4583 90.9806 25.6136 90.3253 25.6136C89.7533 25.6136 89.2476 25.4867 88.8082 25.233C88.3726 24.9754 88.0317 24.6023 87.7855 24.1136C87.5393 23.6212 87.4162 23.0265 87.4162 22.3295V16.7727H89.473V22.0114C89.473 22.5644 89.6245 23.0038 89.9276 23.3295C90.2306 23.6553 90.6283 23.8182 91.1207 23.8182C91.4238 23.8182 91.7173 23.7443 92.0014 23.5966C92.2855 23.4489 92.5185 23.2292 92.7003 22.9375C92.8859 22.642 92.9787 22.2727 92.9787 21.8295ZM101.509 16.7727V18.3636H96.4915V16.7727H101.509ZM97.7301 14.6818H99.7869V22.875C99.7869 23.1515 99.8286 23.3636 99.9119 23.5114C99.9991 23.6553 100.113 23.7538 100.253 23.8068C100.393 23.8598 100.548 23.8864 100.719 23.8864C100.848 23.8864 100.965 23.8769 101.071 23.858C101.181 23.839 101.264 23.822 101.321 23.8068L101.668 25.4148C101.558 25.4527 101.401 25.4943 101.196 25.5398C100.995 25.5852 100.749 25.6117 100.457 25.6193C99.9422 25.6345 99.4782 25.5568 99.0653 25.3864C98.6525 25.2121 98.3248 24.9432 98.0824 24.5795C97.8438 24.2159 97.7263 23.7614 97.7301 23.2159V14.6818Z" fill="#029664"/>
<rect x="134" y="7.5" width="26" height="24" rx="12" fill="#029664"/>
<path d="M150.792 19.5L143.208 19.5" stroke="white" stroke-width="3" stroke-linecap="round" stroke-linejoin="round"/>
<path d="M147 23L143.208 19.5L147 16" stroke="white" stroke-width="3" stroke-linecap="round" stroke-linejoin="round"/>
<rect x="0.5" y="0.5" width="175" height="38" rx="7.5" stroke="#355B3E"/>
</svg>
